<svg xmlns="http://www.w3.org/2000/svg" width="309.169" height="238.833" viewBox="0 0 309.169 238.833"><path d="M350.572,85.486c-19.1-.744-37.286-7.657-54.651-15.221s-34.572-15.946-53.213-19.932c-11.986-2.578-25.7-2.943-35.357,4.265-9.289,6.917-12.3,18.889-13.912,30-1.217,8.359-1.933,17.156,1.383,24.979,2.313,5.428,6.417,10,9.255,15.206,9.874,18.105,2.894,40.433-7.806,58.116-5.02,8.293-10.842,16.2-14.717,25.034s-5.663,18.943-2.275,27.949c3.36,8.917,11.364,15.632,20.034,20.346,17.611,9.58,38.375,12.321,58.6,13.872,44.8,3.439,89.835,1.938,134.75.457,16.626-.551,33.32-1.109,49.673-3.989,9.082-1.6,18.458-4.145,25.047-10.278,8.37-7.785,10.444-20.971,4.84-30.733-9.407-16.376-35.415-20.443-41.991-38.018-3.616-9.673.1-20.447,5.359-29.419,2.7-4.6,5.828-9.066,9.212-13.726,10.085-13.886,21.218-27.665,21.978-44.406.691-15.12-8.408-30.24-22.472-37.39-14.735-7.49-35.167-6.548-46.036,5.854C387.1,81.229,367.433,86.141,350.572,85.486Z" transform="translate(-162.999 -57.866) rotate(3)" fill="#0d33bc" opacity="0.1"/></svg>