<svg xmlns="http://www.w3.org/2000/svg" width="67.51" height="147.308" viewBox="0 0 67.51 147.308"><g transform="translate(-157.862 -329.692)"><g transform="translate(157.862 329.692)"><path d="M119.327,0h0C100.685,0,85.572,15.528,85.572,34.683V69.513c0,19.155,15.113,34.683,33.755,34.683h0c18.642,0,33.755-15.528,33.755-34.683V34.683C153.082,15.528,137.969,0,119.327,0Z" transform="translate(-85.572)" fill="#1f84ce"/><path d="M180.148,133.824l12.066-16.336a4.659,4.659,0,0,0,0-5.26L178.206,93.261a2.449,2.449,0,0,0-3.18-.886,3.927,3.927,0,0,0-1.819,3.516v28.534L164.1,112.091a2.458,2.458,0,0,0-4.109-.1,4.645,4.645,0,0,0-.077,5.36l12.166,16.472L159.911,150.3a4.646,4.646,0,0,0,.077,5.36A2.586,2.586,0,0,0,162,156.716a2.621,2.621,0,0,0,2.094-1.161l9.109-12.333v28.534a3.927,3.927,0,0,0,1.819,3.516,2.324,2.324,0,0,0,1.086.275,2.631,2.631,0,0,0,2.094-1.161l14.008-18.966a4.659,4.659,0,0,0,0-5.26Zm-1.129-28.534,7.067,9.568-7.067,9.568V105.29Zm0,57.068V143.222l7.067,9.568Z" transform="translate(-142.307 -83.79)" fill="#145587" opacity="0.3"/><path d="M180.148,108.65,192.214,94.8a3.461,3.461,0,0,0,0-4.458L178.206,74.271a2.713,2.713,0,0,0-3.18-.751,3.229,3.229,0,0,0-1.819,2.98v24.184L164.1,90.23a2.715,2.715,0,0,0-4.109-.085,3.457,3.457,0,0,0-.077,4.543l12.166,13.961-12.166,13.961a3.458,3.458,0,0,0,.077,4.543,2.715,2.715,0,0,0,4.109-.085l9.109-10.453V140.8a3.229,3.229,0,0,0,1.819,2.98,2.664,2.664,0,0,0,1.086.233,2.78,2.78,0,0,0,2.094-.984l14.008-16.075a3.461,3.461,0,0,0,0-4.458Zm-1.129-24.184,7.067,8.109-7.067,8.109V84.466Zm0,48.368V116.615l7.067,8.109Z" transform="translate(-142.307 -56.552)" fill="#fff"/></g><g transform="translate(168.117 455)" fill="#fff" stroke="#707070" stroke-width="1"><rect width="47" height="22" rx="11" stroke="none"/><rect x="0.5" y="0.5" width="46" height="21" rx="10.5" fill="none"/></g><rect width="16" height="16" rx="8" transform="translate(196.117 458)" fill="#1f84ce"/></g></svg>