<svg xmlns="http://www.w3.org/2000/svg" width="10.791" height="10.79" viewBox="0 0 10.791 10.79"><g transform="translate(0 -0.016)"><g transform="translate(0 0.016)"><path d="M6.584,5.411l4.035-4.035a.591.591,0,0,0,0-.835L10.265.188a.592.592,0,0,0-.835,0L5.4,4.223,1.361.188a.591.591,0,0,0-.835,0L.173.542a.591.591,0,0,0,0,.835L4.207,5.411.173,9.446a.592.592,0,0,0,0,.835l.354.353a.591.591,0,0,0,.835,0L5.4,6.6,9.43,10.634a.586.586,0,0,0,.417.172h0a.586.586,0,0,0,.417-.172l.354-.353a.592.592,0,0,0,0-.835Z" transform="translate(0 -0.016)"/></g></g></svg>