<svg xmlns="http://www.w3.org/2000/svg" xmlns:xlink="http://www.w3.org/1999/xlink" width="58" height="58" viewBox="0 0 58 58"><defs><filter id="a" x="0" y="0" width="58" height="58" filterUnits="userSpaceOnUse"><feOffset dy="3" input="SourceAlpha"/><feGaussianBlur stdDeviation="3" result="b"/><feFlood flood-color="#232323" flood-opacity="0.051"/><feComposite operator="in" in2="b"/><feComposite in="SourceGraphic"/></filter></defs><g transform="translate(9 6)"><g transform="matrix(1, 0, 0, 1, -9, -6)" filter="url(#a)"><g transform="translate(9 6)" fill="#f1f1f1" stroke="#dedede" stroke-width="1"><circle cx="20" cy="20" r="20" stroke="none"/><circle cx="20" cy="20" r="19.5" fill="none"/></g></g><path d="M12.741,12.785h1.911M2.274,7.826,1,7.86m1.274-.033a1.82,1.82,0,1,0,1.82-1.82A1.82,1.82,0,0,0,2.274,7.826Zm4.163.033h8.215M8.434,2.935H1m13.653,0H12.741M1,12.785H8.434m3.852.048a1.82,1.82,0,1,1-1.82-1.82A1.82,1.82,0,0,1,12.286,12.832Zm0-10.012A1.82,1.82,0,1,1,10.466,1,1.82,1.82,0,0,1,12.286,2.82Z" transform="translate(12.174 12.174)" fill="none" stroke="#313131" stroke-linecap="round" stroke-width="1.5"/></g></svg>