<svg xmlns="http://www.w3.org/2000/svg" xmlns:xlink="http://www.w3.org/1999/xlink" width="171.276" height="182.814" viewBox="0 0 171.276 182.814"><defs><linearGradient id="a" x1="0.812" y1="0.398" x2="0.224" y2="0.87" gradientUnits="objectBoundingBox"><stop offset="0" stop-color="#5574da"/><stop offset="1" stop-color="#7f4cbf" stop-opacity="0.588"/></linearGradient><filter id="b" x="0" y="0" width="171.276" height="182.814" filterUnits="userSpaceOnUse"><feOffset dy="29" input="SourceAlpha"/><feGaussianBlur stdDeviation="14.5" result="c"/><feFlood flood-color="#7f4cbf" flood-opacity="0.161"/><feComposite operator="in" in2="c"/><feComposite in="SourceGraphic"/></filter><linearGradient id="d" x1="-0.126" y1="0.14" x2="1.102" y2="0.924" gradientUnits="objectBoundingBox"><stop offset="0" stop-color="#5574da" stop-opacity="0.161"/><stop offset="0.074" stop-color="#7c4ec1" stop-opacity="0.953"/><stop offset="1" stop-color="#7f4cbf" stop-opacity="0.29"/></linearGradient><filter id="e" x="37.325" y="106.271" width="103" height="74" filterUnits="userSpaceOnUse"><feOffset dy="9" input="SourceAlpha"/><feGaussianBlur stdDeviation="5.5" result="f"/><feFlood flood-opacity="0.129"/><feComposite operator="in" in2="f"/><feComposite in="SourceGraphic"/></filter></defs><g transform="translate(43.5 14.5)"><g transform="translate(0 0)"><g transform="translate(84.276 0) rotate(90)"><g transform="matrix(0, -1, 1, 0, -14.5, 127.78)" filter="url(#b)"><path d="M41.987,83.978A41.982,41.982,0,1,1,73.753,69.449L94.6,80.944c2.035,1.652,1.446,3.319-1.223,3.332Zm17.852-56.85h-35.9a2.992,2.992,0,0,0,0,5.984h35.9a2.992,2.992,0,0,0,0-5.984Zm0,11.968h-35.9a2.992,2.992,0,0,0,0,5.984h35.9a2.992,2.992,0,0,0,0-5.984Zm2.992,14.96a2.992,2.992,0,0,0-2.992-2.992h-35.9a2.992,2.992,0,0,0,0,5.984h35.9A2.992,2.992,0,0,0,62.83,54.057Z" transform="translate(127.78 14.5) rotate(90)" fill="url(#a)"/></g></g><path d="M27.029,0A27.281,27.281,0,0,1,54.057,27.527,27.281,27.281,0,0,1,27.029,55.054,27.281,27.281,0,0,1,0,27.527,27.281,27.281,0,0,1,27.029,0Z" transform="translate(15.11 14.836)" fill="#6c8aeb"/><path d="M27.029,0A27.281,27.281,0,0,1,54.057,27.527,27.281,27.281,0,0,1,27.029,55.054,27.281,27.281,0,0,1,0,27.527,27.281,27.281,0,0,1,27.029,0Z" transform="translate(15.11 14.836)" fill="url(#d)"/><g transform="translate(27.353 27.578)"><circle cx="14.785" cy="14.785" r="14.785" transform="translate(0 0)" fill="#fff"/></g></g><g transform="translate(10.325 101.271)"><g transform="matrix(1, 0, 0, 1, -53.82, -115.77)" filter="url(#e)"><text transform="translate(53.82 146.77)" fill="#5473da" font-size="31" font-family="SegoeUIBlack, Segoe UI"><tspan x="0" y="0">Ping</tspan></text></g></g></g></svg>