<svg xmlns="http://www.w3.org/2000/svg" width="16.749" height="13.792" viewBox="0 0 16.749 13.792"><path d="M13.314.5H3.435A3.439,3.439,0,0,0,0,3.935V9.24a3.379,3.379,0,0,0,2.43,3.249l1.659,1.659a.491.491,0,0,0,.694,0L6.3,12.626h7.01a3.439,3.439,0,0,0,3.435-3.435V3.935A3.439,3.439,0,0,0,13.314.5Zm2.454,8.691a2.456,2.456,0,0,1-2.454,2.454H6.1a.491.491,0,0,0-.347.144L4.436,13.107l-1.4-1.4a.49.49,0,0,0-.228-.129A2.4,2.4,0,0,1,.981,9.24V3.935A2.456,2.456,0,0,1,3.435,1.481h9.88a2.456,2.456,0,0,1,2.454,2.454Zm0,0" transform="translate(0 -0.5)" fill="#6b6b6b"/><path d="M152.48,144.328h-6.231a.491.491,0,1,0,0,.981h6.231a.491.491,0,1,0,0-.981Zm0,0" transform="translate(-140.99 -140.228)" fill="#6b6b6b"/><path d="M152.48,197.352h-6.231a.491.491,0,1,0,0,.981h6.231a.491.491,0,1,0,0-.981Zm0,0" transform="translate(-140.99 -190.517)" fill="#6b6b6b"/></svg>