<svg xmlns="http://www.w3.org/2000/svg" xmlns:xlink="http://www.w3.org/1999/xlink" width="177.406" height="360.503" viewBox="0 0 177.406 360.503"><defs><clipPath id="a"><path d="M0,0H9.7l.424,182.19H.347Z" fill="none"/></clipPath></defs><g transform="translate(0)"><path d="M150.423,360.5l-123.532-.071A26.642,26.642,0,0,1,7.9,352.487,26.972,26.972,0,0,1,.1,333.355L1.343,26.289A26.124,26.124,0,0,1,3.47,16.046,26.613,26.613,0,0,1,27.946,0l121.6.069A26.617,26.617,0,0,1,174,16.129a26.124,26.124,0,0,1,2.121,10.239l1.119,307.068a26.961,26.961,0,0,1-16.348,24.941,26.613,26.613,0,0,1-10.469,2.126Z" fill="#455a64"/><path d="M141.215.02H117.629A5.861,5.861,0,0,0,113.541,1.8,5.772,5.772,0,0,0,111.91,5.93l.006,4.247a5.768,5.768,0,0,1-1.63,4.132,5.855,5.855,0,0,1-4.094,1.784h-46a5.856,5.856,0,0,1-4.094-1.784,5.769,5.769,0,0,1-1.631-4.132l0-4.267a5.773,5.773,0,0,0-1.633-4.126A5.862,5.862,0,0,0,48.748,0H19.812A18.635,18.635,0,0,0,2.675,11.209a18.294,18.294,0,0,0-1.5,7.163L.067,318.072A18.876,18.876,0,0,0,11.5,335.525a18.64,18.64,0,0,0,7.322,1.5l123.213.071a18.747,18.747,0,0,0,15.652-8.43,18.973,18.973,0,0,0,3.13-10.51l-.981-299.7a18.293,18.293,0,0,0-1.481-7.177A18.631,18.631,0,0,0,141.215.02Z" transform="translate(7.956 10.837)" fill="#fff"/><path d="M5.121,8.823a.477.477,0,0,1-.328-.128L.173,4.665A.451.451,0,0,1,.015,4.29.473.473,0,0,1,.112,4a.477.477,0,0,1,.072-.076L4.827.1A.49.49,0,0,1,5.354.055a.482.482,0,0,1,.1.789L1.247,4.31,5.442,7.974a.508.508,0,0,1-.32.85Z" transform="translate(20.492 38.075)" fill="#263238"/><path d="M7.391,0H35.716a7.394,7.394,0,0,1,7.413,7.369l.017,5.6a7.361,7.361,0,0,1-7.375,7.378H7.421A7.386,7.386,0,0,1,.015,12.971l-.006-5.6A7.369,7.369,0,0,1,7.391,0Z" transform="translate(115.168 118.847)" fill="#7f4cbf"/><path d="M158.909.257c0,.035-2.223.068-6.244.1s-9.839.058-17.029.082S119.885.48,110.38.493,90.424.514,79.455.514,58.036.507,48.53.493,30.464.461,23.274.438,10.266.386,6.245.356,0,.292,0,.257,2.224.189,6.245.159,16.083.1,23.272.077,39.021.034,48.527.021,68.484,0,79.455,0s21.422.01,30.928.026,18.066.039,25.255.065,13.007.055,17.027.084S158.909.232,158.909.257Z" transform="translate(8.248 56.475)" fill="#e0e0e0"/><path d="M159.2.258c0,.037-2.227.072-6.256.1s-9.857.059-17.06.082S120.1.484,110.58.5,90.588.516,79.6.516,58.141.509,48.619.5s-18.1-.031-25.3-.054S10.285.392,6.257.361,0,.3,0,.258,2.228.186,6.256.155,16.112.1,23.314.073,39.092.032,48.615.019,68.609,0,79.6,0s21.461.007,30.985.021,18.1.033,25.3.056,13.03.051,17.058.082S159.2.223,159.2.258Z" transform="translate(8.102 97.87)" fill="#e0e0e0"/><path d="M159.592.269c0,.035-2.233.069-6.271.1s-9.882.059-17.1.083S120.4.494,110.854.508,90.812.529,79.8.529,58.285.521,48.739.508,30.595.475,23.374.451,10.311.4,6.272.369,0,.3,0,.269,2.234.2,6.271.168s9.88-.061,17.1-.086S39.189.037,48.735.022,68.778,0,79.8,0s21.514.007,31.061.021S129,.054,136.221.079s13.062.053,17.1.086S159.592.232,159.592.269Z" transform="translate(8.892 154.314)" fill="#e0e0e0"/><path d="M159.974.261c0,.035-2.238.069-6.286.1s-9.905.059-17.143.083S120.689.487,111.12.5,91.03.521,79.988.521,58.425.514,48.856.5,30.668.467,23.43.443,10.335.391,6.287.36,0,.3,0,.261,2.238.192,6.285.161,16.187.1,23.424.078,39.278.034,48.848.021,68.94,0,79.988,0s21.57.008,31.14.021,18.187.033,25.424.057S149.643.13,153.69.161,159.974.225,159.974.261Z" transform="translate(8.72 209.145)" fill="#e0e0e0"/><path d="M160.363.262c0,.035-2.244.069-6.3.1s-9.929.059-17.185.083S120.982.489,111.389.5,91.251.524,80.182.524,58.567.516,48.974.5,30.743.47,23.487.446,10.36.393,6.3.362,0,.3,0,.262,2.244.193,6.3.162,16.227.1,23.481.078,39.373.035,48.966.021,69.108,0,80.182,0,101.8.008,111.4.021s18.232.033,25.486.057,13.124.052,17.18.083S160.363.227,160.363.262Z" transform="translate(8.526 264.853)" fill="#e0e0e0"/><path d="M7.112,0H127.52a7.086,7.086,0,0,1,6.514,4.287A6.981,6.981,0,0,1,134.6,7.02l.016,5.34a6.967,6.967,0,0,1-2.053,4.969,7.036,7.036,0,0,1-4.987,2.059H7.062A7.04,7.04,0,0,1,.567,15.094,6.964,6.964,0,0,1,.02,12.359L.035,7.02A6.98,6.98,0,0,1,.6,4.287,7.079,7.079,0,0,1,7.112,0Z" transform="translate(23.178 68.732)" fill="#ebebeb"/><path d="M4.641,9.192A4.636,4.636,0,0,1,.378,6.384,4.587,4.587,0,0,1,2.822.361a4.639,4.639,0,0,1,6.06,2.445A4.587,4.587,0,0,1,6.439,8.831,4.618,4.618,0,0,1,4.641,9.192ZM4.62.5A4.11,4.11,0,0,0,.829,3,4.095,4.095,0,0,0,.836,6.191a4.127,4.127,0,0,0,7.6,0A4.095,4.095,0,0,0,8.423,3,4.133,4.133,0,0,0,4.62.5Z" transform="translate(140.884 72.365)" fill="#263238"/><path d="M3.064,2.517l-.035.008-.035,0-.035,0-.035-.008L.1.446A.247.247,0,0,1,.124.034.25.25,0,0,1,.4.05L3.212,2.12a.248.248,0,0,1,.068.07.248.248,0,0,1,.039.14.252.252,0,0,1-.006.048.246.246,0,0,1-.04.089.279.279,0,0,1-.154.053.28.28,0,0,1-.055,0Z" transform="translate(148.399 79.794)" fill="#263238"/><path d="M37.655.259a7.809,7.809,0,0,1-1.48.1c-.953.031-2.332.059-4.035.082S28.408.485,26.155.5s-4.729.019-7.328.019S13.752.511,11.5.5,7.219.467,5.515.444,2.433.393,1.48.362A7.809,7.809,0,0,1,0,.259a7.812,7.812,0,0,1,1.48-.1C2.433.124,3.812.1,5.515.073S9.247.032,11.5.019,16.228,0,18.827,0,23.9.007,26.155.021s4.281.033,5.984.056,3.082.052,4.035.082A8.347,8.347,0,0,1,37.655.259Z" transform="translate(67.107 126.525)" fill="#263238"/><path d="M22.775.259a2.911,2.911,0,0,1-.894.1c-.576.031-1.409.059-2.438.082S17.186.486,15.823.5s-2.862.019-4.436.019S8.314.511,6.951.5,4.362.467,3.332.444,1.469.393.894.362A2.91,2.91,0,0,1,0,.259a2.923,2.923,0,0,1,.9-.1C1.472.124,2.306.1,3.336.073S5.594.032,6.956.019,9.816,0,11.388,0s3.069.011,4.432.028,2.589.041,3.62.068S21.3.152,21.88.181A4.709,4.709,0,0,1,22.775.259Z" transform="translate(67.101 132.854)" fill="#e0e0e0"/><path d="M7.408,0H35.8a7.425,7.425,0,0,1,7.431,7.4l.017,5.629a7.383,7.383,0,0,1-7.392,7.413H7.439A7.418,7.418,0,0,1,.015,13.034L.009,7.4A7.391,7.391,0,0,1,7.408,0Z" transform="translate(115.232 173.827)" fill="#7f4cbf"/><path d="M37.7.26a8.34,8.34,0,0,1-1.483.1c-.955.031-2.337.059-4.045.083s-3.741.043-6,.057S21.428.52,18.823.52,13.738.51,11.485.493,7.2.454,5.5.427,2.426.372,1.476.343A11.382,11.382,0,0,1,0,.26,11.515,11.515,0,0,1,1.484.177C2.439.148,3.821.119,5.529.092s3.741-.049,6-.066S16.267,0,18.873,0s5.084.007,7.337.02,4.28.031,5.982.054,3.077.051,4.028.082A7.725,7.725,0,0,1,37.7.26Z" transform="translate(67.105 181.542)" fill="#263238"/><path d="M22.78.26a3.1,3.1,0,0,1-.9.1c-.577.031-1.412.059-2.444.083S17.178.486,15.811.5,12.943.52,11.365.52,8.287.513,6.926.5,4.341.466,3.315.443,1.46.391.888.36A3.049,3.049,0,0,1,0,.26,3.116,3.116,0,0,1,.9.16C1.475.129,2.311.1,3.344.078S5.607.034,6.973.021,9.839,0,11.415,0s3.074.008,4.435.021,2.584.033,3.611.057S21.317.129,21.89.16A3.06,3.06,0,0,1,22.78.26Z" transform="translate(67.099 187.901)" fill="#e0e0e0"/><path d="M7.426,0H35.889a7.419,7.419,0,0,1,5.258,2.179A7.447,7.447,0,0,1,43.337,7.44l.017,5.656a7.4,7.4,0,0,1-7.41,7.449H7.457A7.41,7.41,0,0,1,2.2,18.363,7.442,7.442,0,0,1,.015,13.1L.009,7.44A7.413,7.413,0,0,1,7.426,0Z" transform="translate(115.296 229.062)" fill="#7f4cbf"/><path d="M37.836.261a7.805,7.805,0,0,1-1.487.1c-.957.032-2.343.06-4.055.083S28.545.49,26.281.5s-4.751.02-7.363.02S13.818.515,11.555.5,7.254.472,5.542.448,2.444.4,1.487.366A7.8,7.8,0,0,1,0,.261a7.813,7.813,0,0,1,1.487-.1C2.445.125,3.83.1,5.542.074S9.292.032,11.555.02,16.307,0,18.918,0s5.1.008,7.363.021,4.3.033,6.013.057,3.1.052,4.055.083A8.344,8.344,0,0,1,37.836.261Z" transform="translate(67.003 236.814)" fill="#263238"/><path d="M22.885.261a2.912,2.912,0,0,1-.9.1c-.578.032-1.415.06-2.45.083S17.269.49,15.9.5s-2.875.02-4.457.02S8.354.516,6.985.5,4.383.472,3.348.449,1.476.4.9.366a2.91,2.91,0,0,1-.9-.1,2.923,2.923,0,0,1,.9-.1C1.479.125,2.317.1,3.352.074S5.621.032,6.989.02,9.863,0,11.443,0,14.527.008,15.9.021s2.6.033,3.637.057,1.873.052,2.453.083A3.114,3.114,0,0,1,22.885.261Z" transform="translate(66.997 243.204)" fill="#e0e0e0"/><path d="M7.444,0H35.975a7.407,7.407,0,0,1,2.9.587,7.5,7.5,0,0,1,4.568,6.889l.017,5.684a7.46,7.46,0,0,1-4.53,6.9,7.384,7.384,0,0,1-2.9.588H7.475A7.419,7.419,0,0,1,2.2,18.452,7.488,7.488,0,0,1,.015,13.16L.009,7.476A7.469,7.469,0,0,1,4.547.587,7.389,7.389,0,0,1,7.444,0Z" transform="translate(115.36 284.575)" fill="#7f4cbf"/><path d="M37.928.262a8.34,8.34,0,0,1-1.49.1c-.96.031-2.348.06-4.064.084S28.614.49,26.345.5s-4.763.021-7.381.021S13.852.517,11.583.5,7.271.471,5.555.447,2.45.394,1.491.363A8.34,8.34,0,0,1,0,.262a8.344,8.344,0,0,1,1.491-.1C2.451.131,3.839.1,5.555.078S9.315.035,11.583.021,16.346,0,18.964,0s5.112.007,7.381.02,4.312.031,6.028.055,3.1.051,4.064.083A7.813,7.813,0,0,1,37.928.262Z" transform="translate(66.95 292.364)" fill="#263238"/><path d="M22.94.263a3.1,3.1,0,0,1-.9.1c-.58.031-1.419.06-2.456.084S17.311.49,15.938.5,13.056.525,11.47.525,8.374.518,7,.5,4.394.471,3.356.447,1.48.394.9.363a3.1,3.1,0,0,1-.9-.1,3.117,3.117,0,0,1,.9-.1C1.482.131,2.323.1,3.36.078S5.634.035,7.006.021,9.887,0,11.47,0s3.092.008,4.464.021,2.608.033,3.646.057,1.878.052,2.458.084A3.116,3.116,0,0,1,22.94.263Z" transform="translate(66.944 298.785)" fill="#e0e0e0"/><path d="M2.629,0A2.61,2.61,0,0,1,4.486.774a2.649,2.649,0,0,1-.836,4.3A2.614,2.614,0,0,1,.77,4.511a2.649,2.649,0,0,1,.837-4.3A2.606,2.606,0,0,1,2.629,0Z" transform="translate(78.249 326.206)" fill="#ebebeb"/><path d="M2.627,0A2.611,2.611,0,0,1,4.485.774a2.648,2.648,0,0,1-.834,4.3A2.615,2.615,0,0,1,.77,4.511,2.648,2.648,0,0,1,1.6.208,2.605,2.605,0,0,1,2.627,0Z" transform="translate(87.973 326.206)" fill="#ebebeb"/><path d="M2.627,0A2.612,2.612,0,0,1,4.485.774a2.648,2.648,0,0,1-.833,4.3,2.621,2.621,0,0,1-2.045,0A2.65,2.65,0,0,1,.77.774,2.61,2.61,0,0,1,2.627,0Z" transform="translate(97.695 326.206)" fill="#ebebeb"/><path d="M3.254,1.619q.136-.079.276-.15t.284-.132q.144-.062.292-.115t.3-.1L4.631,0H6.549l.271,1.115q.153.036.3.083t.3.1q.146.057.288.124t.279.144L8.977.938l1.385,1.323-.593.987q.08.135.151.275t.134.283q.063.143.116.291t.1.3L11.4,4.62l.006,1.906-1.123.267q-.036.152-.083.3t-.1.293q-.057.145-.124.285t-.144.276l.639.988L9.143,10.309l-1-.593q-.135.078-.274.149T7.591,10q-.143.062-.29.115t-.3.1l-.216,1.057H4.87L4.6,10.151q-.153-.036-.3-.083t-.3-.1q-.146-.057-.288-.124T3.434,9.7l-.993.632L1.056,9.005l.594-.988q-.08-.135-.151-.275T1.365,7.46q-.063-.143-.116-.291t-.1-.3L.016,6.645l0-1.906,1.123-.267q.036-.152.083-.3t.1-.293q.057-.145.124-.285t.144-.276L.95,2.33,2.269,1.017l1,.592Zm1,2.537a2.037,2.037,0,0,0-.082,2.751,2.063,2.063,0,0,0,3.175-.054,2.034,2.034,0,0,0,.183-2.266,2.007,2.007,0,0,0-1.056-.9,2.077,2.077,0,0,0-1.525.026,2.045,2.045,0,0,0-.665.447Z" transform="translate(144.957 36.846)" fill="#263238"/><path d="M21.385,0A21.222,21.222,0,0,1,40.95,12.909a21.131,21.131,0,0,1-.022,16.475,21.3,21.3,0,0,1-39.216,0,21.131,21.131,0,0,1,.05-16.475A21.326,21.326,0,0,1,21.385,0Z" transform="translate(17.421 106.765)" fill="#f5f5f5"/><path d="M.042.468,5.612,0l13.6,2.28L20.8,12.5l-.232,1.186a21.444,21.444,0,0,1-4.884,2.007,21.454,21.454,0,0,1-5.149.751,21.422,21.422,0,0,1-5.176-.511A21.357,21.357,0,0,1,.4,14.153L.042.468" transform="translate(28.766 132.734)" fill="#7f4cbf"/><path d="M.024.077A7.279,7.279,0,0,1,5.749,1.692,7.241,7.241,0,0,1,7.125,3.224q.345.479.675.967t.645.987q.315.5.615,1.006t.585,1.024c-.6.563-1.159,1.106-1.7,1.621s-1.072,1-1.62,1.455A14.445,14.445,0,0,1,4.59,11.526a11.929,11.929,0,0,1-2.043.983Z" transform="translate(45.048 134.777)" fill="#7f4cbf"/><path d="M6.906,0a5.558,5.558,0,0,0-.6.119,8.162,8.162,0,0,0-1.423.5A6.9,6.9,0,0,0,3.192,1.7,5.615,5.615,0,0,0,1.786,3.587C1.427,4.371,1.137,5.02.9,5.553S.494,6.5.363,6.82.145,7.358.091,7.5s-.074.2-.074.2C.492,8.27,1,8.857,1.538,9.432a23.087,23.087,0,0,0,1.716,1.662A15.12,15.12,0,0,0,5.17,12.518a10.493,10.493,0,0,0,2.119,1.02s.044-.483.112-1.242.16-1.794.254-2.9.192-2.28.272-3.319.142-1.941.166-2.5c.027-.61.054-1.143.058-1.6A5.192,5.192,0,0,0,8.071.849,1.079,1.079,0,0,0,7.7.189,1.184,1.184,0,0,0,6.906,0Z" transform="translate(21.902 133.199)" fill="#7f4cbf"/><path d="M2,3.855A10.1,10.1,0,0,1,9.794,0q.484,0,.965.043t.955.129q.474.086.939.215t.918.3a5.518,5.518,0,0,1,3.177,2.086,9.258,9.258,0,0,1,1.827,4.253q.083.595.139,1.193t.083,1.2q.028.6.027,1.2t-.029,1.2a8.7,8.7,0,0,1-1.514,4.505l-4.082.706q-.847.066-1.695.076T9.811,17.07q-.846-.045-1.688-.145T6.447,16.67a8.637,8.637,0,0,1-5.5-3.611,5.994,5.994,0,0,1-.821-2.206A8.263,8.263,0,0,1,.1,8.386,9.628,9.628,0,0,1,.756,5.954,8.5,8.5,0,0,1,2,3.855Z" transform="translate(30.272 109.278)" fill="#263238"/><path d="M0,3.711A.676.676,0,0,0,.25,3.93a2,2,0,0,0,.838.279A2.243,2.243,0,0,0,2.4,3.95a2.1,2.1,0,0,0,1-1.293,2.042,2.042,0,0,0-.187-1.6,2.089,2.089,0,0,0-1-.875A2,2,0,0,0,1.345,0a.721.721,0,0,0-.319.06q.145.008.288.029T1.6.144q.14.034.277.08t.269.105a2.156,2.156,0,0,1,.866.836A1.978,1.978,0,0,1,3.159,2.6,1.99,1.99,0,0,1,2.3,3.761a2.1,2.1,0,0,1-1.168.279Q.98,4.027.835,4T.548,3.931q-.142-.041-.279-.1T0,3.711Z" transform="translate(46.271 124.206)" fill="#e0e0e0"/><path d="M.032,2.6A2.994,2.994,0,0,1,1.425.312,2.2,2.2,0,0,1,4,.541l.647.756a2.626,2.626,0,0,1,1.51,2.646,2.888,2.888,0,0,1-2,2.358A3.211,3.211,0,0,1,1.1,5.564,3.547,3.547,0,0,1,.032,2.6Z" transform="translate(28.218 122.364)" fill="#263238"/><path d="M.36,4.327a1.4,1.4,0,0,1-.217-.806,3.66,3.66,0,0,1,.943-1.83q.171-.2.36-.385t.4-.347Q2.046.8,2.268.652T2.724.388c.12-.065.23-.119.329-.166s.184-.084.255-.114S3.433.054,3.47.037,3.526.007,3.523,0Q3.411.011,3.3.033T3.081.087Q2.973.12,2.869.163t-.2.1a4.933,4.933,0,0,0-1.739,1.3q-.1.114-.187.234T.566,2.04q-.083.125-.158.254t-.144.263A2.336,2.336,0,0,0,0,3.551,1.159,1.159,0,0,0,.18,4.2c.022.022.044.042.064.059S.283,4.289.3,4.3a.278.278,0,0,0,.04.024C.35,4.328.357,4.33.36,4.327Z" transform="translate(28.682 123.382)" fill="#455a64"/><path d="M.211,5.123Q.185,4.786.184,4.448t.024-.675Q.232,3.436.282,3.1t.125-.665q.1-.324.222-.64T.9,1.176q.146-.305.314-.6T1.571,0q-.079.065-.153.135T1.276.282q-.068.076-.129.157T1.031.607A5.635,5.635,0,0,0,.023,4.327q.005.1.02.2t.038.2q.024.1.056.2t.074.192Z" transform="translate(30.803 123.789)" fill="#455a64"/><path d="M9.189,23.142,9.2,19.359a3.2,3.2,0,0,0,.535-.123,4.92,4.92,0,0,0,1.247-.589A5.229,5.229,0,0,0,12.4,17.261a6.881,6.881,0,0,0,1.056-2.518q.167-1.052.284-2.11t.184-2.119q.067-1.061.083-2.125T13.99,6.261A5.9,5.9,0,0,0,13.6,4.224a7.285,7.285,0,0,0-1.111-1.972A5.958,5.958,0,0,0,10.773.759a4.488,4.488,0,0,0-2.2-.6L7.151,0,1.682,2.146A1.515,1.515,0,0,0,.233,3.6L.03,21.758,9.107,34.5Z" transform="translate(34.187 110.986)" fill="#a26760"/><path d="M0,.783A.919.919,0,0,1,1.442.167a1.229,1.229,0,0,1,.477,1.164h0A1.181,1.181,0,0,1,1.11,1.8H1A1,1,0,0,1,.322,1.53.882.882,0,0,1,0,.783Z" transform="translate(41.216 123.951)" fill="#7b4b45"/><path d="M1.108.527A.555.555,0,0,1,.93.905a.559.559,0,0,1-.391.149.527.527,0,0,1-.5-.323A.526.526,0,0,1,0,.527.546.546,0,0,1,.173.15.549.549,0,0,1,.561,0a.536.536,0,0,1,.548.527Z" transform="translate(46.036 119.662)" fill="#263238"/><path d="M2.2.631C2.178.649,2.14.641,2.082.62s-.133-.057-.225-.1A2.717,2.717,0,0,0,1.534.41,1.868,1.868,0,0,0,1.129.343,2.006,2.006,0,0,0,.716.367,2.962,2.962,0,0,0,.377.442C.279.47.2.5.137.511s-.1.019-.115,0A.079.079,0,0,1,0,.456.117.117,0,0,1,.03.39.428.428,0,0,1,.115.313,1.357,1.357,0,0,1,.262.224,1.462,1.462,0,0,1,1.16,0,1.416,1.416,0,0,1,2,.323.984.984,0,0,1,2.108.43a.569.569,0,0,1,.067.092A.226.226,0,0,1,2.2.592.045.045,0,0,1,2.2.631Z" transform="translate(44.901 118.206)" fill="#263238"/><path d="M0,4.942q.122-.03.246-.053T.5,4.852q.125-.015.251-.022T1,4.822c.037,0,.075,0,.11,0a.492.492,0,0,0,.1-.014.188.188,0,0,0,.077-.038.138.138,0,0,0,.043-.075.753.753,0,0,0-.079-.457L.872,3.062Q.735,2.689.614,2.31T.387,1.549Q.282,1.165.192.778T.03,0Q.2.361.346.728t.286.741q.135.373.255.752t.224.762q.048.153.095.3l.092.3.09.291q.045.143.089.281a.863.863,0,0,1,0,.6.38.38,0,0,1-.27.209l-.065.008-.065,0-.065,0L.948,4.962q-.118.013-.237.018t-.237,0q-.119,0-.237-.013T0,4.942Z" transform="translate(43.348 118.38)" fill="#263238"/><path d="M5.69,1.841a11,11,0,0,1-1.507-.162,10.988,10.988,0,0,1-1.463-.365A10.97,10.97,0,0,1,1.32.752,10.951,10.951,0,0,1,.006,0a3.321,3.321,0,0,0,.28.475,5.251,5.251,0,0,0,.942,1.032,5.659,5.659,0,0,0,1.756,1,7.214,7.214,0,0,0,2.722.38Z" transform="translate(37.674 128.505)" fill="#7b4b45"/><path d="M.094,0C.119,0,.136.04.155.107S.2.27.232.38A1.915,1.915,0,0,0,.389.743a1.572,1.572,0,0,0,.3.381A1.688,1.688,0,0,0,1.1,1.4a2.259,2.259,0,0,0,.393.144c.119.032.222.052.294.07s.116.032.116.055a.066.066,0,0,1-.03.055.227.227,0,0,1-.087.033.971.971,0,0,1-.141.017c-.056,0-.12,0-.192,0a1.66,1.66,0,0,1-.273-.041,1.657,1.657,0,0,1-.261-.085,1.656,1.656,0,0,1-.243-.126,1.653,1.653,0,0,1-.22-.166A1.417,1.417,0,0,1,.014.418.928.928,0,0,1,0,.238.613.613,0,0,1,.024.1.27.27,0,0,1,.059.024C.072.006.084,0,.094,0Z" transform="translate(41.477 123.64)" fill="#263238"/><path d="M2.219.587a.2.2,0,0,1-.142.059A1.39,1.39,0,0,1,1.831.639C1.734.631,1.624.618,1.5.607s-.249-.02-.383-.02S.858.6.737.605.507.627.41.636A1.469,1.469,0,0,1,.167.642.173.173,0,0,1,.035.587.167.167,0,0,1,0,.5.128.128,0,0,1,.028.418.4.4,0,0,1,.111.338C.147.311.192.281.245.249A1.669,1.669,0,0,1,2,.249a1.012,1.012,0,0,1,.125.1A.5.5,0,0,1,2.2.444a.2.2,0,0,1,.031.08A.088.088,0,0,1,2.219.587Z" transform="translate(44.763 116.024)" fill="#263238"/><path d="M0,.489a.566.566,0,0,0,.527.567.539.539,0,0,0,.58-.487A.546.546,0,0,0,.789.051.549.549,0,0,0,.581,0,.539.539,0,0,0,0,.489Z" transform="translate(40.321 119.661)" fill="#263238"/><path d="M.007.557c.017.02.057.016.115,0S.259.507.353.474A2.639,2.639,0,0,1,.682.38,1.846,1.846,0,0,1,1.1.339,1.9,1.9,0,0,1,1.5.391a2.682,2.682,0,0,1,.324.1c.093.035.17.067.229.086s.1.025.124.008A.076.076,0,0,0,2.216.531.108.108,0,0,0,2.188.463.533.533,0,0,0,2.1.38c-.038-.03-.084-.064-.139-.1A1.468,1.468,0,0,0,1.1,0,1.452,1.452,0,0,0,.227.259a1,1,0,0,0-.119.1A.584.584,0,0,0,.035.449.229.229,0,0,0,0,.518.042.042,0,0,0,.007.557Z" transform="translate(38.942 118.071)" fill="#263238"/><path d="M.017.568A.2.2,0,0,0,.161.627,1.456,1.456,0,0,0,.412.62C.511.611.624.6.747.588s.257-.02.4-.02.272.007.393.015l.331.026a1.827,1.827,0,0,0,.25.005A.269.269,0,0,0,2.271.568.125.125,0,0,0,2.322.489.107.107,0,0,0,2.291.41a.518.518,0,0,0-.1-.084C2.15.3,2.1.265,2.042.23A1.648,1.648,0,0,0,1.135,0,1.733,1.733,0,0,0,.227.25.73.73,0,0,0,.1.341a.413.413,0,0,0-.075.09A.186.186,0,0,0,0,.51.079.079,0,0,0,.017.568Z" transform="translate(38.596 116.788)" fill="#263238"/><path d="M3.153,1.27A1.181,1.181,0,0,0,3.1.965,2.345,2.345,0,0,0,2.961.6a1.565,1.565,0,0,0-.2-.319A.452.452,0,0,0,2.537.116,1.866,1.866,0,0,0,.028,2.055a2.2,2.2,0,0,0,2.26,2.507,2.213,2.213,0,0,0,.547-.09c0-.015.02-.154.046-.37s.06-.512.1-.839.073-.688.1-1.035S3.139,1.546,3.153,1.27Z" transform="translate(31.989 120.521)" fill="#a26760"/><path d="M1.277,2.308H1.266a.19.19,0,0,0-.03.008.3.3,0,0,0-.047.021.441.441,0,0,0-.061.04.51.51,0,0,1-.379,0A1.238,1.238,0,0,1,.232,1.214a1.7,1.7,0,0,1,.2-.706A.57.57,0,0,1,.843.149.248.248,0,0,1,1.132.3q0,.019,0,.037t0,.037q0,.019,0,.037t0,.037a.03.03,0,0,0,.011,0A.052.052,0,0,0,1.164.427a.118.118,0,0,0,.018-.05.364.364,0,0,0,0-.1.386.386,0,0,0-.1-.189A.429.429,0,0,0,.8,0a.73.73,0,0,0-.57.418,1.758,1.758,0,0,0-.221.806A1.328,1.328,0,0,0,.677,2.536a.581.581,0,0,0,.469-.05.943.943,0,0,0,.072-.073A.433.433,0,0,0,1.26,2.36a.139.139,0,0,0,.017-.035C1.28,2.316,1.279,2.31,1.277,2.308Z" transform="translate(32.813 121.571)" fill="#7b4b45"/><path d="M1.57,10.112l.736.766c.807-.766,1.808-1.82,2.849-2.964s2.122-2.377,3.091-3.5,1.826-2.136,2.418-2.84.919-1.1.829-.984a9.38,9.38,0,0,0-4.6-.5A21.218,21.218,0,0,0,4.8.559,13.515,13.515,0,0,0,2.522,1.4,5.794,5.794,0,0,0,.713,2.687a2.55,2.55,0,0,0-.7,1.819A14.56,14.56,0,0,0,1.57,10.112Z" transform="translate(32.836 110.535)" fill="#263238"/><path d="M3.439,3.711s0,.007-.012.019a.515.515,0,0,1-.04.05.741.741,0,0,1-.074.07.954.954,0,0,1-.113.08,2,2,0,0,1-.839.279A2.236,2.236,0,0,1,1.054,3.95a2.161,2.161,0,0,1-.781-2.9,2.121,2.121,0,0,1,1-.875A2,2,0,0,1,2.141,0,.719.719,0,0,1,2.46.06q-.145.008-.288.029T1.889.144q-.14.034-.277.08T1.342.329a2.169,2.169,0,0,0-.87.836,1.982,1.982,0,0,0,.7,2.6,2.1,2.1,0,0,0,1.167.279,2.846,2.846,0,0,0,1.1-.328Z" transform="translate(31.009 124.206)" fill="#e0e0e0"/><path d="M0,9.521s0,0,0-.011,0-.018,0-.032,0-.032,0-.053,0-.045,0-.073.029-.08.045-.119.032-.079.048-.118S.128,9.038.146,9,.182,8.923.2,8.885a4.447,4.447,0,0,1,1.23-1.372q.282-.2.58-.373t.608-.323q.311-.148.633-.27t.655-.217q.4-.1.805-.219t.8-.239q.4-.124.793-.258t.786-.278q.384-.16.758-.341t.737-.385q.363-.2.713-.427t.688-.467q.277-.2.545-.409t.525-.433q.257-.223.5-.457t.483-.48c.132-.139.256-.274.371-.4s.222-.255.321-.373.189-.229.272-.332l.225-.282.29-.407L13.634,0a.07.07,0,0,1,0,.011.185.185,0,0,1-.009.031.328.328,0,0,1-.024.05.524.524,0,0,1-.046.067c-.02.025-.039.052-.059.082s-.04.062-.062.1-.045.072-.071.112-.055.082-.087.127q-.13.189-.268.373t-.281.363q-.144.179-.294.353t-.307.342q-.233.251-.478.491t-.5.467q-.256.228-.524.443t-.545.417q-.341.248-.7.476t-.723.434q-.368.207-.747.392t-.769.348q-.393.145-.789.279t-.8.259q-.4.124-.8.238t-.808.218q-.328.089-.646.2t-.625.258q-.307.142-.6.31T1.5,7.6A4.5,4.5,0,0,0,.251,8.915q-.035.074-.068.149t-.065.151q-.031.076-.061.152T0,9.521Z" transform="translate(30.139 110.479)" fill="#455a64"/><path d="M0,9.462a1.48,1.48,0,0,1,.121-.636,3,3,0,0,1,1.1-1.382q.28-.182.576-.337t.6-.279q.308-.125.628-.22t.648-.159q.393-.081.781-.184t.769-.227q.381-.124.755-.27t.739-.312q.365-.167.719-.355t.7-.4q.341-.209.67-.439t.642-.479q.253-.205.5-.422t.476-.444q.233-.228.454-.466t.433-.486q.137-.169.268-.342t.256-.351q.125-.178.244-.36t.231-.368L12.38.431l.067-.107.06-.1c.018-.031.035-.06.05-.087L12.579.1,12.6.066l.026-.034L12.657,0q-.007.021-.014.041t-.017.04l-.019.039-.021.038-.23.417q-.11.192-.228.38t-.243.37q-.125.183-.257.36t-.271.35q-.21.255-.432.5t-.456.477q-.234.233-.479.453t-.5.429q-.314.254-.642.487t-.672.445q-.343.212-.7.4t-.724.356Q6.382,5.752,6,5.9t-.765.271q-.386.124-.779.227t-.791.183q-.321.054-.635.138t-.617.2q-.3.114-.6.256t-.569.313A2.995,2.995,0,0,0,.132,8.8Q.109,8.878.09,8.96t-.036.166q-.016.083-.03.167T0,9.462Z" transform="translate(30.984 110.996)" fill="#455a64"/><path d="M.111,5.809Q.075,5.446.052,5.083T.017,4.355Q.006,3.992.006,3.627T.018,2.9Q.008,2.536.01,2.173t.015-.725Q.038,1.085.063.723T.126,0Q.174.725.2,1.451T.218,2.9q0,.727-.029,1.453T.111,5.809Z" transform="translate(29.08 141.288)" fill="#263238"/><path d="M1.108,6.755q-.01-.124-.015-.249t0-.249q0-.125.006-.249t.016-.249q.023-.3.029-.609t0-.609q-.009-.3-.035-.608t-.067-.606q-.057-.3-.128-.595T.749,2.145Q.663,1.853.563,1.566T.35,1Q.295.876.246.754T.156.506Q.113.382.077.255T.012,0q.07.107.135.217T.27.441q.059.113.111.23t.1.236A8.352,8.352,0,0,1,.941,2.058a8.353,8.353,0,0,1,.284,1.2,8.356,8.356,0,0,1,.1,1.23A8.367,8.367,0,0,1,1.25,5.728q0,.13-.01.26t-.027.258Q1.2,6.375,1.17,6.5t-.061.253Z" transform="translate(48.235 139.893)" fill="#263238"/><path d="M42.932,21.6q-.005-.043-.008-.087t0-.087q0-.044,0-.087t.008-.087c0-.062,0-.13,0-.2s0-.151-.007-.235-.011-.172-.02-.265-.023-.191-.04-.293c0-.055,0-.111,0-.17s0-.118-.005-.18-.008-.125-.015-.189-.016-.13-.029-.2-.024-.136-.036-.207-.023-.143-.034-.217l-.034-.226q-.017-.115-.036-.235-.038-.277-.085-.553t-.1-.549q-.057-.274-.124-.545t-.143-.541q-.188-.741-.43-1.465t-.538-1.427q-.3-.7-.643-1.383t-.746-1.333A21.122,21.122,0,0,0,14.544,1.9q-.726.247-1.429.551t-1.377.663q-.675.359-1.32.771t-1.255.876q-.316.228-.625.466t-.608.487q-.3.249-.591.507t-.574.527q-.277.287-.545.583t-.526.6q-.258.3-.505.617T4.7,9.184q-.49.657-.925,1.35t-.812,1.417q-.377.724-.7,1.478T1.694,14.96q-.259.8-.458,1.62T.9,18.227q-.139.829-.217,1.667t-.095,1.68q.009.844.081,1.684t.206,1.67q.134.831.329,1.651T1.653,28.2q.252.78.566,1.536t.687,1.483q.373.727.8,1.422T4.63,34q.235.321.48.634t.5.617q.256.3.523.6t.544.581q.282.268.573.527t.59.508q.3.249.606.489t.622.469q.306.23.62.449t.636.426q.322.207.651.4t.666.378q.333.174.671.336t.681.315q.343.152.691.293t.7.271a21.344,21.344,0,0,0,11.083.927,21.03,21.03,0,0,0,8.895-3.927q.814-.611,1.564-1.3t1.429-1.435q.679-.751,1.285-1.564t1.132-1.683q.4-.654.749-1.335t.647-1.385q.3-.7.542-1.429t.435-1.467q.076-.269.144-.541t.125-.546q.058-.274.106-.55t.087-.553q.038-.2.069-.4t.055-.4q.024-.2.041-.407t.026-.408c0-.107,0-.208.01-.3s.014-.183.022-.266.017-.16.024-.231.013-.136.015-.2q-.006-.042-.009-.084t0-.085q0-.042,0-.085t.009-.084q0,.042.006.085t0,.085q0,.042,0,.085t-.006.085q0,.1,0,.208t0,.235q0,.124,0,.262t0,.29q0,.206-.009.413t-.027.412q-.018.205-.044.41t-.062.408q-.03.281-.071.56t-.092.557q-.052.278-.114.553t-.135.549q-.179.753-.415,1.489t-.527,1.451q-.291.715-.637,1.407t-.744,1.357q-.525.888-1.132,1.72t-1.289,1.6q-.682.769-1.436,1.472t-1.574,1.332a21.4,21.4,0,0,1-8.995,4.046,21.591,21.591,0,0,1-11.323-.9q-.361-.131-.718-.273t-.708-.3q-.352-.153-.7-.318t-.688-.34q-.344-.189-.682-.39t-.668-.413q-.33-.212-.653-.435T8.79,38.81q-.323-.237-.637-.486t-.62-.508q-.305-.259-.6-.529t-.582-.55q-.286-.293-.561-.6t-.541-.614q-.265-.311-.52-.632t-.5-.649q-.5-.681-.945-1.4t-.829-1.467q-.385-.749-.708-1.528t-.584-1.582Q.9,27.449.7,26.608T.357,24.915Q.219,24.063.147,23.2T.067,21.475q.014-.863.093-1.721t.222-1.707Q.525,17.2.731,16.36T1.206,14.7q.263-.8.591-1.583t.718-1.527q.39-.748.841-1.463t.959-1.392q.243-.33.5-.651t.52-.633q.265-.312.542-.615t.563-.6q.289-.277.586-.545t.6-.525q.306-.257.621-.5t.638-.483q.315-.234.639-.457t.654-.434q.331-.211.67-.411t.684-.387q.341-.176.688-.341t.7-.318q.352-.153.709-.294t.719-.269a20.987,20.987,0,0,1,15.691.47,21.385,21.385,0,0,1,10.026,8.98q.4.665.74,1.357t.633,1.408q.289.715.523,1.452t.411,1.49q.07.272.131.546t.111.55q.051.276.092.554t.072.557a2.131,2.131,0,0,0,.014.241c.009.078.021.155.034.229s.027.147.039.218.024.14.031.207.011.134.012.2,0,.13,0,.193,0,.124-.007.183,0,.116,0,.171q0,.162,0,.3t0,.267q0,.124,0,.23t0,.193q.009.041.015.081t.012.082q0,.041.008.082T42.932,21.6Z" transform="translate(17.13 106.383)" fill="#263238"/><path d="M21.541,0A21.455,21.455,0,0,1,41.227,29.813,21.593,21.593,0,0,1,29.8,41.253,21.437,21.437,0,0,1,1.776,13.1,21.593,21.593,0,0,1,13.2,1.684,21.349,21.349,0,0,1,21.541,0Z" transform="translate(16.901 272.83)" fill="#f5f5f5"/><path d="M.042.485,5.653,0l13.7,2.323,1.6,10.358-.233,1.213a21.483,21.483,0,0,1-4.92,2.037,21.435,21.435,0,0,1-5.187.76A21.4,21.4,0,0,1,5.4,16.169a21.38,21.38,0,0,1-5-1.809L.042.485" transform="translate(28.329 299.179)" fill="#5574da"/><path d="M.024.079A7.309,7.309,0,0,1,5.788,1.7,7.34,7.34,0,0,1,7.177,3.252q.348.485.68.981t.65,1q.317.505.619,1.021t.588,1.04C9.108,7.862,8.548,8.412,8,8.934S6.922,9.952,6.37,10.411a14.584,14.584,0,0,1-1.746,1.263,11.921,11.921,0,0,1-2.058,1Z" transform="translate(44.73 301.261)" fill="#5574da"/><path d="M6.956,0a5.591,5.591,0,0,0-.6.121,8.2,8.2,0,0,0-1.434.5,6.946,6.946,0,0,0-1.705,1.1A5.679,5.679,0,0,0,1.8,3.629C1.437,4.422,1.145,5.08.91,5.621S.5,6.586.366,6.911s-.219.55-.273.694-.075.208-.075.208c.479.579.989,1.174,1.532,1.757a23.324,23.324,0,0,0,1.729,1.686A15.241,15.241,0,0,0,5.208,12.7a10.535,10.535,0,0,0,2.135,1.035s.045-.49.113-1.261.161-1.822.256-2.944.194-2.314.274-3.368.143-1.968.167-2.534c.027-.619.055-1.159.059-1.621A5.305,5.305,0,0,0,8.13.861a1.1,1.1,0,0,0-.37-.67A1.186,1.186,0,0,0,6.956,0Z" transform="translate(21.415 299.661)" fill="#5574da"/><path d="M4.063,3.911A10.137,10.137,0,0,1,11.916,0q.487,0,.971.044t.962.129q.477.086.946.214t.925.3a5.571,5.571,0,0,1,3.2,2.127,9.383,9.383,0,0,1,1.84,4.315c.044.4.1.808.148,1.22s.106.831.157,1.263.1.877.138,1.34.072.946.091,1.453c.017.406.033.855.051,1.345s.037,1.02.06,1.588.049,1.175.082,1.817.071,1.321.117,2.032l.513,5.705c-.3,0-1.744-.116-3.756-.289s-4.6-.4-7.191-.633-5.2-.459-7.245-.629S.382,23.057,0,23.062c0,0,.042-.4.109-1.044s.16-1.536.261-2.52.211-2.062.313-3.08.2-1.977.266-2.723c.129-1.38.262-2.528.42-3.512a17.516,17.516,0,0,1,.572-2.53A9.8,9.8,0,0,1,2.8,5.7,13.035,13.035,0,0,1,4.063,3.911Z" transform="translate(27.797 275.42)" fill="#263238"/><path d="M9.234,23.48l.008-3.827a3.213,3.213,0,0,0,.539-.126,4.965,4.965,0,0,0,1.256-.6,5.3,5.3,0,0,0,1.431-1.408,7,7,0,0,0,1.064-2.55q.168-1.068.286-2.141T14,10.677q.067-1.077.084-2.156t-.017-2.158a6.038,6.038,0,0,0-.4-2.068,7.416,7.416,0,0,0-1.119-2A6,6,0,0,0,10.83.776a4.471,4.471,0,0,0-2.213-.6L7.181,0,1.673,2.168A1.534,1.534,0,0,0,.66,2.621,1.546,1.546,0,0,0,.213,3.64l-.2,18.447,1.755,1.889a4.821,4.821,0,0,0,7.471-.495Z" transform="translate(33.813 277.113)" fill="#a26760"/><path d="M0,.8A.881.881,0,0,1,.316.231.931.931,0,0,1,1.452.16a1.256,1.256,0,0,1,.4.525,1.265,1.265,0,0,1,.08.656h0a1.148,1.148,0,0,1-.577.424,1.141,1.141,0,0,1-.238.051H1.006a1,1,0,0,1-.683-.272A.909.909,0,0,1,0,.8Z" transform="translate(40.871 290.276)" fill="#7b4b45"/><path d="M1.116.535a.566.566,0,0,1-.352.494.56.56,0,0,1-.212.041A.539.539,0,0,1,.166.917.543.543,0,0,1,0,.535a.566.566,0,0,1,.358-.5A.559.559,0,0,1,.575,0a.531.531,0,0,1,.451.235.535.535,0,0,1,.091.3Z" transform="translate(45.464 286.189)" fill="#263238"/><path d="M2.212.648C2.194.665,2.155.658,2.1.636s-.134-.058-.227-.1A2.832,2.832,0,0,0,1.545.419,1.93,1.93,0,0,0,1.137.345,1.835,1.835,0,0,0,.722.366,2.75,2.75,0,0,0,.38.446C.281.475.2.5.138.518s-.1.019-.116,0A.094.094,0,0,1,0,.455.115.115,0,0,1,.03.389.427.427,0,0,1,.116.314,1.522,1.522,0,0,1,.264.224,1.614,1.614,0,0,1,1.168,0a1.421,1.421,0,0,1,.843.333,1,1,0,0,1,.112.108.578.578,0,0,1,.068.093.23.23,0,0,1,.028.071A.046.046,0,0,1,2.212.648Z" transform="translate(44.583 284.442)" fill="#263238"/><path d="M0,5.014q.123-.033.248-.057T.5,4.918Q.624,4.9.751,4.9t.254,0c.038,0,.075,0,.111,0a.459.459,0,0,0,.1-.015.185.185,0,0,0,.077-.042.154.154,0,0,0,.043-.082.748.748,0,0,0-.08-.454L.878,3.107Q.74,2.728.618,2.344T.39,1.571Q.284,1.183.194.79T.03,0Q.2.366.351.738t.289.751q.136.379.256.763t.223.774l.369,1.2a.881.881,0,0,1,0,.605.4.4,0,0,1-.112.137.4.4,0,0,1-.159.075l-.065.005-.065,0-.065,0L.955,5.044q-.119.01-.239.013t-.239,0q-.12,0-.239-.014T0,5.014Z" transform="translate(43.018 284.625)" fill="#263238"/><path d="M5.732,1.878a11,11,0,0,1-1.519-.166,11,11,0,0,1-1.474-.373A11,11,0,0,1,1.329.766,11.009,11.009,0,0,1,.007,0,3.388,3.388,0,0,0,.289.483a5.326,5.326,0,0,0,.949,1.05A5.686,5.686,0,0,0,3.007,2.551a7.2,7.2,0,0,0,2.742.387Z" transform="translate(37.302 294.888)" fill="#7b4b45"/><path d="M.1,0C.12,0,.137.041.157.11S.2.277.234.39A1.965,1.965,0,0,0,.392.762a1.583,1.583,0,0,0,.3.388,1.665,1.665,0,0,0,.416.281,2.206,2.206,0,0,0,.4.143c.12.032.223.05.3.067s.117.031.117.054a.071.071,0,0,1-.03.057.223.223,0,0,1-.087.036.833.833,0,0,1-.142.017c-.056,0-.121,0-.194,0a1.6,1.6,0,0,1-.276-.039,1.6,1.6,0,0,1-.508-.214,1.605,1.605,0,0,1-.22-.171A1.418,1.418,0,0,1,.147.947,1.426,1.426,0,0,1,.014.424.937.937,0,0,1,0,.243.605.605,0,0,1,.025.11.284.284,0,0,1,.06.028C.072.009.085,0,.1,0Z" transform="translate(41.134 289.952)" fill="#263238"/><path d="M2.235.6a.2.2,0,0,1-.143.06A1.388,1.388,0,0,1,1.844.649c-.1-.009-.208-.022-.328-.033S1.266.6,1.13.6.864.6.743.615.51.637.413.646A1.469,1.469,0,0,1,.168.652.174.174,0,0,1,.035.6.169.169,0,0,1,0,.507.124.124,0,0,1,.028.429.43.43,0,0,1,.112.348C.149.32.194.289.247.254A1.614,1.614,0,0,1,1.131,0a1.54,1.54,0,0,1,.884.232,1.039,1.039,0,0,1,.126.111.542.542,0,0,1,.078.1A.222.222,0,0,1,2.25.531.093.093,0,0,1,2.235.6Z" transform="translate(44.443 282.233)" fill="#263238"/><path d="M0,.5a.564.564,0,0,0,.32.521.559.559,0,0,0,.212.054.539.539,0,0,0,.212-.026A.546.546,0,0,0,1.116.578.554.554,0,0,0,.805.057.549.549,0,0,0,.6,0,.542.542,0,0,0,.383.024.546.546,0,0,0,0,.5Z" transform="translate(39.637 286.186)" fill="#263238"/><path d="M.007.575C.025.593.065.587.123.569S.261.52.356.487A2.636,2.636,0,0,1,.687.394,1.9,1.9,0,0,1,1.1.353a1.9,1.9,0,0,1,.413.054,2.689,2.689,0,0,1,.327.1c.093.035.171.068.231.088s.1.026.124.008A.078.078,0,0,0,2.232.547.115.115,0,0,0,2.2.476.5.5,0,0,0,2.117.391a1.674,1.674,0,0,0-.14-.1A1.54,1.54,0,0,0,1.1,0,1.454,1.454,0,0,0,.429.152a1.462,1.462,0,0,0-.2.12,1.085,1.085,0,0,0-.12.1A.581.581,0,0,0,.035.462.219.219,0,0,0,0,.531.053.053,0,0,0,.007.575Z" transform="translate(38.58 284.302)" fill="#263238"/><path d="M.016.576a.218.218,0,0,0,.15.06A1.472,1.472,0,0,0,.421.629C.521.62.635.607.757.6s.255-.02.394-.02.27.007.392.016l.334.026a1.867,1.867,0,0,0,.255.005A.272.272,0,0,0,2.286.576.127.127,0,0,0,2.338.5a.11.11,0,0,0-.03-.08.516.516,0,0,0-.1-.085C2.171.3,2.121.269,2.066.233A1.68,1.68,0,0,0,1.142,0,1.736,1.736,0,0,0,.227.254.78.78,0,0,0,.107.347.458.458,0,0,0,.031.438.2.2,0,0,0,0,.517.077.077,0,0,0,.016.576Z" transform="translate(38.535 282.607)" fill="#263238"/><path d="M3.174,1.3A1.224,1.224,0,0,0,3.121.985,2.438,2.438,0,0,0,2.98.611a1.611,1.611,0,0,0-.2-.327A.454.454,0,0,0,2.553.115a1.886,1.886,0,0,0-1.825.3,1.905,1.905,0,0,0-.7,1.72,2.238,2.238,0,0,0,.749,2,2.22,2.22,0,0,0,2.078.454c0-.028.021-.177.047-.4s.061-.529.1-.863.073-.7.1-1.052S3.16,1.575,3.174,1.3Z" transform="translate(31.578 286.79)" fill="#a26760"/><path d="M1.286,2.363H1.275l-.031.007a.333.333,0,0,0-.048.018.459.459,0,0,0-.062.035.5.5,0,0,1-.382,0A1.29,1.29,0,0,1,.24,1.575a1.3,1.3,0,0,1-.006-.343,1.734,1.734,0,0,1,.2-.716A.6.6,0,0,1,.849.143a.25.25,0,0,1,.245.082A.251.251,0,0,1,1.14.3c0,.013,0,.025,0,.038s0,.025,0,.038,0,.025,0,.038,0,.025-.005.038l.011-.01A.146.146,0,0,0,1.173.415.174.174,0,0,0,1.191.362a.232.232,0,0,0,0-.078.352.352,0,0,0-.1-.192A.38.38,0,0,0,.886,0,.377.377,0,0,0,.809,0,.717.717,0,0,0,.236.425a1.764,1.764,0,0,0-.223.817A1.333,1.333,0,0,0,.37,2.323a1.322,1.322,0,0,0,.312.242.511.511,0,0,0,.472-.05.528.528,0,0,0,.073-.058.313.313,0,0,0,.042-.048.129.129,0,0,0,.017-.033C1.289,2.367,1.289,2.363,1.286,2.363Z" transform="translate(32.406 287.842)" fill="#7b4b45"/><path d="M1.581,10.249l.742.787c.813-.779,1.821-1.851,2.869-3.012S7.33,5.613,8.306,4.474,10.145,2.308,10.741,1.6s.926-1.112.835-1a9.383,9.383,0,0,0-4.629-.5A20.764,20.764,0,0,0,4.834.562a13.471,13.471,0,0,0-2.294.848A5.828,5.828,0,0,0,.718,2.716a2.6,2.6,0,0,0-.7,1.845,14.778,14.778,0,0,0,1.563,5.688Z" transform="translate(32.43 276.666)" fill="#263238"/><path d="M.111,5.894Q.076,5.527.052,5.16T.017,4.424Q.005,4.056.006,3.688t.013-.736Q.008,2.582.01,2.213t.015-.739Q.038,1.1.064.736T.127,0Q.175.736.2,1.472T.22,2.946q0,.737-.029,1.474T.111,5.894Z" transform="translate(28.645 307.858)" fill="#263238"/><path d="M1.117,6.854Q1.106,6.727,1.1,6.6t0-.253q0-.127.006-.253t.016-.253q.023-.309.029-.618t0-.618q-.01-.309-.035-.617t-.067-.614q-.058-.3-.13-.6t-.159-.6q-.086-.3-.187-.588T.352,1.011Q.3.889.247.765T.156.514Q.113.388.077.259T.012,0Q.083.108.148.22T.272.447Q.331.562.384.68t.1.239q.13.285.242.578t.206.591q.094.3.17.6t.133.613q.039.312.058.626t.019.628q0,.314-.021.628t-.06.626q0,.131,0,.263t-.02.262q-.014.13-.037.26T1.117,6.854Z" transform="translate(47.94 306.443)" fill="#263238"/><path d="M43.295,21.893q-.006-.043-.009-.086t0-.086q0-.043,0-.086t.009-.086c0-.066,0-.136,0-.21s0-.154-.007-.238-.011-.173-.021-.266-.023-.192-.04-.3c0-.058,0-.117,0-.178s0-.122-.005-.185-.008-.127-.015-.193-.016-.132-.029-.2-.024-.138-.036-.21-.023-.145-.034-.22l-.034-.23q-.017-.117-.036-.238-.038-.281-.086-.561t-.105-.557q-.057-.278-.124-.553t-.143-.549q-.19-.752-.434-1.486T41.6,13.731q-.3-.713-.647-1.4t-.75-1.352A21.181,21.181,0,0,0,14.7,1.9q-.355.132-.705.274t-.7.3q-.346.154-.687.318t-.676.34q-.346.177-.686.366t-.672.391q-.332.2-.657.416t-.641.44q-.318.232-.628.474t-.612.494q-.3.252-.6.514t-.58.533q-.28.289-.551.588t-.53.606q-.26.308-.509.624t-.487.642q-.494.668-.932,1.373t-.818,1.441q-.38.736-.7,1.5t-.58,1.556a21.138,21.138,0,0,0-.041,13.436q.253.79.569,1.556t.692,1.5q.376.736.811,1.44T4.715,34.4q.46.658.973,1.273t1.074,1.185q.561.569,1.169,1.09t1.258.99q.608.467,1.249.883t1.313.78q.671.364,1.37.674t1.421.565a21.3,21.3,0,0,0,20.7-3.482,21.421,21.421,0,0,0,4.873-5.616q.4-.664.756-1.354t.652-1.405q.3-.714.546-1.45t.437-1.488q.077-.273.145-.549t.126-.554q.058-.278.107-.558t.087-.561q.039-.2.07-.409T43.1,24q.024-.206.041-.413t.026-.414c0-.106,0-.207.01-.3s.014-.186.022-.27.017-.163.024-.236.013-.14.015-.2q-.005-.044-.008-.088t0-.088q0-.044,0-.088t.008-.088q0,.044.006.088t0,.088q0,.044,0,.088t-.006.088q0,.1,0,.21t0,.238q0,.126,0,.266t0,.3q0,.209-.009.419t-.027.418q-.018.208-.045.416t-.062.414q-.03.284-.071.566t-.093.563q-.052.28-.115.559t-.136.554q-.18.765-.418,1.513t-.531,1.475q-.293.727-.642,1.431t-.749,1.379A21.6,21.6,0,0,1,21.79,43.589a21.407,21.407,0,0,1-7.441-1.306q-.364-.131-.724-.274t-.714-.3q-.354-.156-.7-.323t-.692-.347q-.348-.191-.688-.394t-.673-.418q-.333-.215-.658-.442t-.642-.465q-.324-.241-.641-.492t-.624-.513q-.307-.262-.606-.534T6.4,37.227q-.288-.3-.565-.607T5.286,36q-.267-.317-.523-.644t-.5-.661q-.506-.69-.954-1.417t-.835-1.488q-.387-.76-.713-1.551t-.587-1.606Q.905,27.794.7,26.942T.36,25.227q-.138-.863-.212-1.736t-.08-1.75q.015-.877.094-1.749t.223-1.735q.144-.863.351-1.714t.478-1.685q.268-.809.6-1.592t.725-1.536q.393-.753.845-1.472t.963-1.4q.245-.334.5-.658t.523-.64q.267-.315.546-.621t.567-.6q.29-.284.589-.557t.608-.535q.309-.262.626-.514t.644-.491q.318-.237.643-.462t.659-.438q.333-.213.674-.414t.689-.39q.343-.18.693-.349t.7-.325q.355-.156.714-.3t.724-.276A21.621,21.621,0,0,1,25.84.381a21.385,21.385,0,0,1,9.03,4.092q.839.647,1.609,1.371t1.466,1.518q.7.794,1.312,1.654t1.148,1.779q.4.674.746,1.377t.638,1.428q.291.726.527,1.473t.413,1.512q.071.276.132.554t.112.558q.051.28.092.562t.072.565a2.1,2.1,0,0,0,.014.238c.009.078.021.155.034.231s.027.15.04.223.024.145.031.216.011.139.012.2,0,.13,0,.193,0,.123-.007.183,0,.118,0,.176q0,.159,0,.3t0,.269q0,.126,0,.236t0,.2q.011.048.018.1t.013.1q0,.049.007.1t0,.1Z" transform="translate(16.558 272.52)" fill="#263238"/><path d="M22.484,0a22.348,22.348,0,1,1-8.7,1.753A22.274,22.274,0,0,1,22.484,0Z" transform="translate(16.203 160.838)" fill="#f5f5f5"/><path d="M.2,1.472A1.793,1.793,0,0,1,2.057.523a2.478,2.478,0,0,1,3.048,0A2.26,2.26,0,0,1,7.274.453,2.22,2.22,0,0,1,8.44,2.27a1.9,1.9,0,0,1,1.937.938,1.877,1.877,0,0,1-.294,2.127,1.769,1.769,0,0,1-.7,3.445L.541,3.528A1.794,1.794,0,0,1,.2,1.472Z" transform="translate(37.592 163.518)" fill="#e0e0e0"/><path d="M13.885,6.771A7.484,7.484,0,0,0,6.331,0h-.39A6.25,6.25,0,0,0,3.206.816,5.838,5.838,0,0,0,1.294,2.633,7.344,7.344,0,0,0,.244,5.178a9.706,9.706,0,0,0-.149,3L.862,22.1l.048.67,9.681,1.8-.053-3.551a4.581,4.581,0,0,0,.626-.171,5.859,5.859,0,0,0,1.377-.677,4.54,4.54,0,0,0,1.378-1.431,4.664,4.664,0,0,0,.629-2.431c0-.482-.019-1.094-.055-1.8s-.088-1.5-.15-2.343-.135-1.745-.213-2.659S13.968,7.675,13.885,6.771Z" transform="translate(33.355 165.778)" fill="#ffbe9d"/><path d="M5.294,1.47A9.74,9.74,0,0,1,3.9,1.391a9.734,9.734,0,0,1-1.359-.275A9.73,9.73,0,0,1,1.237.65,9.721,9.721,0,0,1,.005,0,3.028,3.028,0,0,0,.267.443a4.6,4.6,0,0,0,.877.944,4.808,4.808,0,0,0,1.629.865,6.26,6.26,0,0,0,2.519.207Z" transform="translate(38.628 185.331)" fill="#eb996e"/><path d="M1.141.513a.571.571,0,0,1-.551.58A.528.528,0,0,1,0,.583.561.561,0,0,1,.542,0a.539.539,0,0,1,.6.51Z" transform="translate(45.081 175.762)" fill="#263238"/><path d="M2.286.57c-.018.02-.058.015-.119,0S2.025.516,1.927.481a2.739,2.739,0,0,0-.343-.1A1.918,1.918,0,0,0,1.156.34,2.022,2.022,0,0,0,.728.395,2.882,2.882,0,0,0,.385.5C.287.536.206.57.145.59S.043.617.026.6A.079.079,0,0,1,0,.542.13.13,0,0,1,.029.47.491.491,0,0,1,.114.384,1.531,1.531,0,0,1,.257.28a1.6,1.6,0,0,1,1.81,0,.809.809,0,0,1,.12.092.517.517,0,0,1,.076.087.206.206,0,0,1,.033.07A.039.039,0,0,1,2.286.57Z" transform="translate(44.11 173.957)" fill="#263238"/><path d="M1.141.513a.571.571,0,0,1-.541.58A.538.538,0,0,1,0,.583.571.571,0,0,1,.542,0a.538.538,0,0,1,.6.51Z" transform="translate(39.332 175.912)" fill="#263238"/><path d="M2.286.59C2.268.607,2.227.6,2.167.582S2.025.531,1.927.5A2.737,2.737,0,0,0,1.584.4,1.968,1.968,0,0,0,1.156.36,2.089,2.089,0,0,0,.728.413a2.976,2.976,0,0,0-.343.1C.287.55.206.582.145.6S.043.627.026.61A.079.079,0,0,1,0,.551.13.13,0,0,1,.029.48.491.491,0,0,1,.114.393,1.534,1.534,0,0,1,.257.29,1.583,1.583,0,0,1,1.167,0a1.5,1.5,0,0,1,.9.28.98.98,0,0,1,.119.1.565.565,0,0,1,.074.091.231.231,0,0,1,.032.072A.056.056,0,0,1,2.286.59Z" transform="translate(38.041 174.147)" fill="#263238"/><path d="M.36,5.146Q.481,5.1.6,5.071t.249-.058q.125-.025.252-.042t.255-.025a.686.686,0,0,0,.116-.01.445.445,0,0,0,.1-.029.233.233,0,0,0,.075-.05.138.138,0,0,0,.038-.071.788.788,0,0,0-.109-.47l-.115-.283-.12-.293q-.061-.149-.122-.3T1.1,3.127Q.935,2.748.782,2.363t-.29-.777Q.355,1.2.234.8T.01,0q.2.361.378.729t.349.743q.167.375.319.756T1.344,3q.063.157.123.311t.118.3l.114.3.112.294a.9.9,0,0,1,.089.61.411.411,0,0,1-.26.24l-.065,0h-.13l-.065,0q-.126.025-.253.043t-.255.029q-.128.011-.256.016t-.257,0Z" transform="translate(42.267 174.137)" fill="#263238"/><path d="M.1,0C.126,0,.145.041.169.11s.052.166.1.278A1.962,1.962,0,0,0,.451.755a1.628,1.628,0,0,0,.338.375,1.739,1.739,0,0,0,.446.261,2.309,2.309,0,0,0,.417.122c.126.025.233.038.31.051s.123.024.126.047a.065.065,0,0,1-.026.058.237.237,0,0,1-.088.042.927.927,0,0,1-.146.027c-.058.007-.125.011-.2.013a1.589,1.589,0,0,1-.292-.014,1.587,1.587,0,0,1-.282-.066,1.589,1.589,0,0,1-.265-.116,1.585,1.585,0,0,1-.241-.164A1.386,1.386,0,0,1,.01.44,1.089,1.089,0,0,1,0,.257.714.714,0,0,1,.026.119.309.309,0,0,1,.061.031C.075.011.088,0,.1,0Z" transform="translate(40.715 179.733)" fill="#263238"/><path d="M2.831.442c-.013.042-.061.07-.137.089a1.9,1.9,0,0,1-.308.037c-.126.008-.274.014-.435.024s-.337.025-.52.049S1.076.7.919.728.618.788.5.81A1.787,1.787,0,0,1,.19.845C.111.845.056.829.032.792A.149.149,0,0,1,0,.69.162.162,0,0,1,.049.6.724.724,0,0,1,.161.509C.208.477.262.442.322.4a2.225,2.225,0,0,1,1-.38,2.339,2.339,0,0,1,1.1.11,1.479,1.479,0,0,1,.195.079.761.761,0,0,1,.134.083.277.277,0,0,1,.072.079A.081.081,0,0,1,2.831.442Z" transform="translate(37.62 171.867)" fill="#e0e0e0"/><path d="M2.072.59a.194.194,0,0,1-.139.059A1.277,1.277,0,0,1,1.7.642C1.6.633,1.5.62,1.386.609S1.149.59,1.022.59.772.6.659.605L.353.631A1.434,1.434,0,0,1,.132.636C.075.631.037.617.022.59A.162.162,0,0,1,0,.509.159.159,0,0,1,.026.427.374.374,0,0,1,.1.343,1.048,1.048,0,0,1,.233.25,1.423,1.423,0,0,1,1.073,0a1.487,1.487,0,0,1,.839.27.682.682,0,0,1,.1.086.39.39,0,0,1,.066.088A.16.16,0,0,1,2.1.526.088.088,0,0,1,2.072.59Z" transform="translate(44.048 172.159)" fill="#e0e0e0"/><path d="M14.407,5.42s-.068-.156-.189-.4-.295-.573-.507-.92a7.629,7.629,0,0,0-.738-1.027,2.82,2.82,0,0,0-.88-.719,1.594,1.594,0,0,0-.972-.151,2.693,2.693,0,0,0-.8.311,4.915,4.915,0,0,1-.788.371,1.6,1.6,0,0,1-.927.028c-.35-.092-.7-.2-1.052-.3a6.64,6.64,0,0,0-1.058-.209,3.164,3.164,0,0,0-1.062.061,2.88,2.88,0,0,0-1.065.514,2.48,2.48,0,0,0-.727.791,1.927,1.927,0,0,0-.218.835,8.074,8.074,0,0,0,.035.976A10.581,10.581,0,0,1,3.488,6.8a43.8,43.8,0,0,1-.386,4.45,11.337,11.337,0,0,1-.581,2.484c-.207.5-.417.662-.6.49a2.948,2.948,0,0,1-.445-1.53A.442.442,0,0,0,1.3,12.41c-.1-.1-.244-.222-.39-.379a2.525,2.525,0,0,1-.423-.605,2.85,2.85,0,0,1-.27-.962q-.114-.746-.164-1.5t-.037-1.5q.013-.752.09-1.5T.325,4.471a5.732,5.732,0,0,1,2.3-3A6.65,6.65,0,0,1,4.224.6,8.655,8.655,0,0,1,5.937.145,11.6,11.6,0,0,1,7.619,0,14.839,14.839,0,0,1,9.13.058a5.261,5.261,0,0,1,1.619.463,7.608,7.608,0,0,1,1.76,1.1A5.8,5.8,0,0,1,13.9,3.277,4.086,4.086,0,0,1,14.407,5.42Z" transform="translate(32.415 165.291)" fill="#e0e0e0"/><path d="M2.712,1A1.1,1.1,0,0,0,1.525,0,2.081,2.081,0,0,0,.962.147a1.457,1.457,0,0,0-.5.344,1.557,1.557,0,0,0-.348.617,2.848,2.848,0,0,0-.1.964,2.067,2.067,0,0,0,2.855,2,3.1,3.1,0,0,0,0-.385c-.006-.207-.018-.481-.033-.785s-.035-.639-.056-.967S2.734,1.283,2.712,1Z" transform="translate(31.398 176.9)" fill="#ffbe9d"/><path d="M1.355,2.133H1.346a.131.131,0,0,0-.026.009.242.242,0,0,0-.041.024.418.418,0,0,0-.054.046.47.47,0,0,1-.36,0,1.2,1.2,0,0,1-.6-1A1.7,1.7,0,0,1,.379.524.531.531,0,0,1,.72.144a.249.249,0,0,1,.29.12c0,.018,0,.034,0,.05s0,.03,0,.041,0,.022,0,.028,0,.01,0,.01a.058.058,0,0,0,.008-.01A.092.092,0,0,0,1.032.355a.119.119,0,0,0,0-.05A.21.21,0,0,0,1.01.234.319.319,0,0,0,.89.064.39.39,0,0,0,.62,0a.692.692,0,0,0-.481.45,1.669,1.669,0,0,0-.132.78A1.245,1.245,0,0,0,.765,2.383a.509.509,0,0,0,.225,0,.511.511,0,0,0,.205-.094.261.261,0,0,0,.16-.16Z" transform="translate(32.3 177.77)" fill="#eb996e"/><path d="M2.631,8.2A2.625,2.625,0,0,0,3.8,8.714a.891.891,0,0,0,1-.639c0-.05,0-.1,0-.152a1.455,1.455,0,0,1,.012-.151.757.757,0,0,1,.033-.142.465.465,0,0,1,.064-.124.246.246,0,0,1,.116-.082.6.6,0,0,1,.164-.032,1.522,1.522,0,0,1,.187,0c.063,0,.126.009.183.014A1.783,1.783,0,0,0,7.374,6.118a.73.73,0,0,0,1,.08q.107-.087.207-.182t.193-.2q.093-.1.178-.209t.163-.222a1.152,1.152,0,0,1,.941-.489q.073.026.147.046t.149.037q.075.016.151.028t.153.018a.39.39,0,0,0,.236-.079.651.651,0,0,0,.171-.2,1.286,1.286,0,0,0,.113-.268,1.878,1.878,0,0,0,.062-.281c.013-.09.024-.183.039-.275a2.122,2.122,0,0,1,.06-.273,1.03,1.03,0,0,1,.108-.248.721.721,0,0,1,.185-.2,1.37,1.37,0,0,1,1,0c.082,0,.171,0,.259-.006a1.2,1.2,0,0,0,.254-.04.517.517,0,0,0,.208-.11.394.394,0,0,0,.119-.214.657.657,0,0,0-.129-.5,1.788,1.788,0,0,0-2.108-.639,2.41,2.41,0,0,0-4.437-.4,2.443,2.443,0,0,0-3.9.948,1.824,1.824,0,0,0-1.851.649,1.845,1.845,0,0,0-.125,2A1.7,1.7,0,0,0,.006,6.237a1,1,0,0,0,1.107,1,1,1,0,0,0,1.717,1" transform="translate(31.492 164.354)" fill="#e0e0e0"/><path d="M.008,0A.657.657,0,0,0,.187.529.874.874,0,0,0,.3.648.878.878,0,0,0,.436.742.876.876,0,0,0,.585.81.879.879,0,0,0,.746.849a1,1,0,0,0,.211,0,1,1,0,0,0,.2-.04A1,1,0,0,0,1.353.731,1,1,0,0,0,1.526.609h-.12q.054.1.117.188t.133.176q.07.085.147.164t.161.151q.054.049.113.093t.122.081q.063.038.129.069t.135.057a1.187,1.187,0,0,0,.373.063A1.193,1.193,0,0,0,3.8,1.169q.042-.065.076-.134t.063-.14q.028-.072.048-.146A1.537,1.537,0,0,0,4.025.6q0-.029.006-.057t0-.058q0-.029,0-.058T4.026.37a.126.126,0,0,1,0,.015.307.307,0,0,1-.009.042.5.5,0,0,1-.024.066.709.709,0,0,1-.046.088Q3.923.649,3.9.718T3.838.852q-.031.066-.067.13t-.076.126a1.123,1.123,0,0,1-.813.392,1.117,1.117,0,0,1-.837-.332q-.078-.069-.151-.144T1.755.87Q1.689.79,1.629.7T1.516.529V.449l-.07.07A.832.832,0,0,1,1.3.628.834.834,0,0,1,1.14.7.831.831,0,0,1,.966.74a.831.831,0,0,1-.18,0A.779.779,0,0,1,.645.71.778.778,0,0,1,.512.656.778.778,0,0,1,.392.579a.779.779,0,0,1-.1-.1A1.3,1.3,0,0,1,.2.371,1.3,1.3,0,0,1,.122.255,1.3,1.3,0,0,1,.058.131,1.308,1.308,0,0,1,.008,0Z" transform="translate(32.348 171.51)" fill="#fff"/><path d="M.006,1.018l.051.015.05.017.05.018.049.02a.926.926,0,0,1,.126.062.927.927,0,0,1,.115.08.927.927,0,0,1,.1.1.927.927,0,0,1,.086.111v0A3.338,3.338,0,0,1,1.956.35,2.645,2.645,0,0,1,3.026.09a2.312,2.312,0,0,1,1.877,1,1.832,1.832,0,0,1,.308.819V2h.08a1.539,1.539,0,0,1,1.149.13,1.414,1.414,0,0,1,.628.659q.043.1.076.195t.057.2q.024.1.037.205t.017.208q0-.029,0-.057t0-.057q0-.029,0-.057t0-.057a1.425,1.425,0,0,0-.139-.619,1.524,1.524,0,0,0-.648-.729,1.69,1.69,0,0,0-1.249-.16l.1.07a1.991,1.991,0,0,0-.338-.9,2.281,2.281,0,0,0-.748-.7A2.368,2.368,0,0,0,2.986,0,2.735,2.735,0,0,0,1.856.28,3.417,3.417,0,0,0,.525,1.448h.15a1,1,0,0,0-.1-.115,1,1,0,0,0-.117-.1,1,1,0,0,0-.13-.079A1,1,0,0,0,.185,1.1a.369.369,0,0,0-.07-.056.226.226,0,0,0-.057-.025.115.115,0,0,0-.038,0C.011,1.013.006,1.016.006,1.018Z" transform="translate(37.463 164.151)" fill="#fff"/><path d="M.042.877a.391.391,0,0,1,0-.049A.7.7,0,0,1,.077.7.781.781,0,0,1,.161.532.852.852,0,0,1,.323.348,1.778,1.778,0,0,1,.521.2C.582.161.637.131.684.108L.793.052C.819.038.834.028.834.018A.015.015,0,0,0,.819,0,.136.136,0,0,0,.779,0L.716.012A.639.639,0,0,1,.634.018a.8.8,0,0,0-.421.24A.831.831,0,0,0,0,.707a.4.4,0,0,0,0,.07A.3.3,0,0,0,.011.834.118.118,0,0,0,.026.869C.031.877.037.88.042.877Z" transform="translate(39.833 179.265)" fill="#eb996e"/><path d="M.011.338.035.324.1.29.188.245C.221.229.256.213.291.2s.07-.028.1-.04L.485.124A.4.4,0,0,0,.552.092.06.06,0,0,0,.581.058C.584.045.575.033.558.023A.193.193,0,0,0,.482,0,.392.392,0,0,0,.368.009.511.511,0,0,0,.231.058a.593.593,0,0,0-.12.083A.459.459,0,0,0,.035.228.217.217,0,0,0,0,.3C0,.319,0,.333.011.338Z" transform="translate(39.606 179.055)" fill="#eb996e"/><path d="M.241,2.4h0L.232,2.391.211,2.37l-.04-.04a.24.24,0,0,1,0-.25A.139.139,0,0,1,.2,2.005a.711.711,0,0,1,.065-.08c.026-.029.054-.06.082-.1a.707.707,0,0,0,.077-.12.36.36,0,0,0,.029-.242A.359.359,0,0,0,.423,1.39Q.4,1.358.384,1.328T.341,1.269Q.318,1.24.294,1.213T.243,1.16a.182.182,0,0,1-.026-.2A.737.737,0,0,1,.359.776a1.236,1.236,0,0,0,.164-.2A.3.3,0,0,0,.565.34.4.4,0,0,0,.552.257.4.4,0,0,0,.416.05.189.189,0,0,0,.392.031L.365.016.336.006.306,0A.234.234,0,0,1,.33.021.4.4,0,0,1,.381.084.438.438,0,0,1,.432.19.477.477,0,0,1,.455.34a.439.439,0,0,1-.021.1.44.44,0,0,1-.042.09A.443.443,0,0,1,.332.606.442.442,0,0,1,.255.67a.711.711,0,0,0-.1.106A.714.714,0,0,0,.074.9a.34.34,0,0,0,0,.35l.045.05.043.052L.2,1.405l.04.055a.179.179,0,0,1,.02.046.18.18,0,0,1-.021.144.217.217,0,0,1-.028.1.637.637,0,0,1-.064.095c-.024.031-.05.062-.074.095a.419.419,0,0,0-.056.1.309.309,0,0,0,.069.33c.025.007.047.013.067.017L.207,2.4l.029,0Z" transform="translate(36.171 183.501)" fill="#eb996e"/><path d="M.277,2.4v0s0,0,0-.011,0-.016,0-.03,0-.033,0-.058S.3,2.26.306,2.24.329,2.2.341,2.18s.026-.038.041-.056.03-.035.046-.052l.03-.043.028-.045.027-.046.025-.047a.4.4,0,0,0,.024-.135.4.4,0,0,0-.023-.135.55.55,0,0,0-.055-.137A.936.936,0,0,0,.405,1.37C.377,1.334.348,1.3.321,1.265a.831.831,0,0,1-.072-.1.224.224,0,0,1-.017-.2A.428.428,0,0,1,.281.873,1.109,1.109,0,0,1,.35.783Q.374.761.395.738T.435.689Q.454.664.47.637T.5.583A.489.489,0,0,0,.511.525a.491.491,0,0,0,0-.058.488.488,0,0,0,0-.058A.488.488,0,0,0,.5.353.436.436,0,0,0,.468.177.36.36,0,0,0,.392.065.29.29,0,0,0,.317.01C.3,0,.282,0,.282,0A.109.109,0,0,0,.3.035.6.6,0,0,1,.341.1.482.482,0,0,1,.379.208.521.521,0,0,1,.391.353a.44.44,0,0,1-.017.1A.44.44,0,0,1,.338.538.443.443,0,0,1,.283.617.441.441,0,0,1,.211.683.6.6,0,0,0,.04.913a.39.39,0,0,0,0,.33,1.208,1.208,0,0,0,.087.123c.03.038.06.072.087.105a.976.976,0,0,1,.072.1.306.306,0,0,1,.042.1.479.479,0,0,1,0,.092.482.482,0,0,1-.02.089.482.482,0,0,1-.036.084A.48.48,0,0,1,.218,2Q.2,2.036.178,2.071t-.033.071q-.015.036-.027.074T.1,2.292c.037.017.067.033.09.047a.553.553,0,0,1,.052.035L.265,2.4C.271,2.4.274,2.4.277,2.4Z" transform="translate(35.285 183.349)" fill="#eb996e"/><path d="M5.278,4.353A7.278,7.278,0,0,0,3.846,2.5,12.074,12.074,0,0,0,2.107,1.137,15.254,15.254,0,0,0,.64.29C.26.1.022,0,.022,0L1.191,12.462q.777-.481,1.516-1.017t1.436-1.123q.7-.587,1.351-1.225T6.754,7.776a.9.9,0,0,0-.027-.145A4.915,4.915,0,0,0,6.558,7.1c-.094-.255-.233-.6-.44-1.047S5.639,5.046,5.278,4.353Z" transform="translate(48.656 190.242)" fill="#455a64"/><path d="M1.127,0Q1.11.068,1.089.135T1.047.269Q1.024.335,1,.4T.946.53C.916.61.883.7.849.794s-.071.2-.109.3-.077.221-.116.338-.08.24-.12.365-.077.25-.112.372-.066.241-.1.353-.057.219-.083.316-.05.185-.072.26q-.014.068-.03.136t-.034.136Q.06,3.442.04,3.509T0,3.643s0,0,0-.011,0-.017,0-.03,0-.029,0-.047,0-.039,0-.061,0-.048,0-.077a.9.9,0,0,1,.009-.094.8.8,0,0,1,.024-.109.838.838,0,0,1,.046-.122q.034-.166.073-.331t.081-.329q.043-.164.09-.327t.1-.324q.049-.162.1-.323t.111-.319Q.694.98.757.823T.886.51C.9.47.916.432.931.4S.96.326.974.294L1.013.205,1.047.13Z" transform="translate(49.299 192.083)" fill="#263238"/><path d="M26.958,2.711l-4.89-1.25a8.98,8.98,0,0,1-2.44.6A8.988,8.988,0,0,1,17.2,1.972a11.236,11.236,0,0,1-2.41-.713A16.051,16.051,0,0,1,12.4,0L3.974,3.571a7.119,7.119,0,0,0-3.406,5l-.546,1.8a20.223,20.223,0,0,0,1.522,1.671,20.224,20.224,0,0,0,1.694,1.487,20.235,20.235,0,0,0,1.849,1.29A20.241,20.241,0,0,0,7.074,15.9a23.366,23.366,0,0,0,5.2,1.7,23.417,23.417,0,0,0,5.387.444,23.451,23.451,0,0,0,5.348-.8A23.463,23.463,0,0,0,28.1,15.2Z" transform="translate(21.72 187.531)" fill="#455a64"/><path d="M0,3.434S0,3.386,0,3.3s0-.213,0-.368,0-.34,0-.544,0-.429,0-.665,0-.461,0-.666,0-.391,0-.548,0-.283,0-.371S.009,0,.009,0s0,.048,0,.135,0,.213,0,.369,0,.341,0,.547,0,.432,0,.67,0,.464,0,.669,0,.389,0,.544,0,.279,0,.366A.49.49,0,0,1,0,3.434Z" transform="translate(29.411 197.477)" fill="#263238"/><path d="M2.542,4.323l-.017-.047-.016-.047q-.007-.024-.014-.048t-.012-.048a.434.434,0,0,0-.015-.105c-.009-.038-.023-.078-.038-.121s-.033-.089-.051-.138-.037-.1-.054-.156q-.069-.214-.149-.423T2,2.776q-.092-.2-.2-.4t-.219-.392q-.112-.194-.235-.381T1.1,1.232Q.966,1.052.824.879T.531.54L.151.15.012,0l.16.12L.254.194l.1.087Q.4.327.455.382T.571.5q.156.164.3.336t.282.353q.136.18.262.369t.24.383q.115.195.218.4t.194.408q.091.207.169.419t.144.429l.042.157c.013.05.026.1.037.142s.021.086.029.125.015.074.02.107.01.061.014.086l.012.063c0,.017.005.03.006.038S2.544,4.323,2.542,4.323Z" transform="translate(25.901 191.462)" fill="#263238"/><path d="M44.569,22.235q-.006-.045-.008-.09t0-.09q0-.045,0-.09t.009-.09c0-.065,0-.136,0-.212s0-.158-.008-.246-.012-.181-.023-.279-.026-.2-.046-.313c0-.057,0-.117,0-.178s0-.124-.005-.188-.008-.13-.015-.2-.016-.136-.029-.206-.024-.142-.036-.215-.023-.149-.034-.226l-.034-.235q-.017-.12-.036-.243-.038-.287-.086-.573t-.107-.57q-.058-.284-.127-.565t-.147-.561q-.2-.771-.448-1.525t-.56-1.485q-.307-.731-.669-1.439t-.775-1.387A21.851,21.851,0,0,0,15.075,1.717q-.367.13-.729.273t-.719.3q-.357.156-.708.325t-.7.35q-.349.191-.691.394t-.676.418q-.334.215-.661.441t-.645.464q-.328.241-.648.494t-.631.516q-.311.263-.612.538t-.594.559q-.288.3-.566.606t-.547.623q-.268.316-.527.64t-.507.657q-.509.682-.962,1.4t-.846,1.471q-.393.752-.726,1.533t-.6,1.589A21.7,21.7,0,0,0,1.74,29.075q.264.808.592,1.591T3.049,32.2q.389.753.838,1.473t.956,1.4q.245.335.5.662t.523.645q.267.318.544.627t.565.609q.292.283.593.556t.611.536q.31.263.628.516t.645.495q.319.239.645.466t.66.444q.334.217.675.422t.689.4q.345.18.7.349t.707.325q.356.157.718.3t.728.277a22.006,22.006,0,0,0,11.5,1A21.742,21.742,0,0,0,35.7,39.634q.843-.636,1.62-1.347t1.48-1.492q.7-.781,1.331-1.627t1.172-1.75q.416-.679.78-1.386t.673-1.438q.309-.731.564-1.484t.452-1.524q.08-.28.149-.563t.129-.568q.059-.285.108-.572t.087-.576c.013-.083.026-.164.039-.244s.026-.158.039-.235.025-.152.035-.226.02-.145.028-.215.011-.139.014-.206,0-.133,0-.2,0-.127.008-.188a1.312,1.312,0,0,1,.025-.178c0-.11,0-.214.01-.312s.014-.19.023-.277.018-.168.027-.245.016-.149.021-.216q-.005-.044-.008-.087t0-.088q0-.044,0-.088t.008-.087q0,.045.006.09t0,.09q0,.045,0,.09t-.006.09v1q0,.087,0,.18t0,.19q0,.1,0,.2t0,.21a1.969,1.969,0,0,1-.013.215c-.008.074-.02.149-.032.226s-.026.155-.04.235-.026.161-.036.244q-.032.307-.077.612t-.1.608q-.058.3-.129.6t-.154.6q-.184.784-.428,1.549t-.546,1.51q-.3.744-.661,1.463t-.773,1.41A22.3,22.3,0,0,1,14.76,43.26q-.375-.135-.746-.282t-.736-.306q-.365-.159-.725-.33t-.714-.354q-.357-.2-.707-.4t-.692-.429q-.342-.22-.677-.453T9.1,40.225q-.334-.248-.66-.507T7.8,39.19q-.317-.269-.626-.549t-.607-.569q-.295-.305-.579-.62t-.557-.639q-.273-.324-.535-.658t-.513-.676q-.521-.7-.982-1.437t-.861-1.51q-.4-.772-.735-1.575T1.2,29.325a22.214,22.214,0,0,1,.044-14.107q.277-.827.619-1.628t.745-1.572q.4-.77.868-1.507T4.46,9.075q.253-.341.517-.673t.539-.656q.275-.323.56-.638t.58-.619q.3-.289.61-.567t.628-.547q.318-.268.645-.526T9.2,4.342q.327-.242.663-.472t.679-.449q.343-.218.694-.425t.708-.4q.354-.185.713-.358t.725-.332q.365-.16.736-.307t.747-.281a22.2,22.2,0,0,1,26.688,9.6q.413.69.77,1.41t.657,1.464q.3.744.542,1.51t.423,1.551q.076.283.141.568t.118.573q.053.288.1.577t.072.581a2.071,2.071,0,0,0,.016.248c.01.08.023.159.036.236s.028.152.04.226.022.147.027.22.007.142.008.21,0,.134,0,.2,0,.127,0,.189,0,.122,0,.182v1.05q.013.039.025.079t.022.08q.01.04.018.08T44.569,22.235Z" transform="translate(16.163 161.207)" fill="#263238"/><path d="M15.635,15.589a22.093,22.093,0,1,1-4.862,7.3A22.04,22.04,0,0,1,15.635,15.589Z" transform="translate(7.545 207.543)" fill="#f5f5f5"/><path d="M16.293,4.027A5.65,5.65,0,0,0,13.484.676,7.173,7.173,0,0,0,8.666.224q-.6.157-1.182.362t-1.147.457q-.564.252-1.106.549t-1.059.639q-.3.168-.591.363t-.554.416q-.267.22-.514.465t-.47.512A10.664,10.664,0,0,0,.026,9.226q.021.772.1,1.539t.23,1.522q.146.756.355,1.5t.478,1.466A3.1,3.1,0,0,0,2.535,16.4q.245.453.529.882t.6.83q.32.4.675.773t.742.711l.879-2.773Z" transform="translate(30.039 221.393)" fill="#263238"/><path d="M2.725.4.03,0A17.984,17.984,0,0,1,1.039,3.3c.29,1.292.541,2.729.773,4.173s.444,2.9.656,4.216.426,2.509.66,3.429a16.166,16.166,0,0,0,.912-1.57c.339-.651.694-1.4,1.012-2.155a19.08,19.08,0,0,0,.79-2.205,5.076,5.076,0,0,0,.246-1.722c-.044-.434-.078-1.117-.154-1.892a15.753,15.753,0,0,0-.4-2.439A5.031,5.031,0,0,0,4.566,1.1,2,2,0,0,0,2.725.4Z" transform="translate(42.779 223.362)" fill="#263238"/><path d="M.114,6.1A4.576,4.576,0,0,1,3.442,1.785L9.578.029a2.977,2.977,0,0,1,1.837.334,4.54,4.54,0,0,1,1.46,1.3,7.4,7.4,0,0,1,1.007,1.869,8.061,8.061,0,0,1,.476,2.05q.127,1.039.2,2.082t.1,2.089q.023,1.046-.006,2.092t-.11,2.091a7.147,7.147,0,0,1-.873,2.707,5.455,5.455,0,0,1-1.355,1.568,5.154,5.154,0,0,1-1.246.724,3.361,3.361,0,0,1-.547.176s0,.133.009.353.014.527.023.875.02.737.03,1.12.021.762.03,1.089L9.6,28.408,1.531,21.49.054,6.1c0-.015,0-.019.009-.017A.073.073,0,0,1,.084,6.1.074.074,0,0,0,.1,6.118C.111,6.12.114,6.116.114,6.1Z" transform="translate(32.869 223.885)" fill="#ffbe9d"/><path d="M1.144.5a.583.583,0,0,1-.532.6A.56.56,0,0,1,0,.605.583.583,0,0,1,.534,0a.56.56,0,0,1,.611.5Z" transform="translate(45.343 232.795)" fill="#263238"/><path d="M2.3.563c-.018.02-.058.016-.119,0S2.042.513,1.943.481A2.731,2.731,0,0,0,1.6.388,1.928,1.928,0,0,0,1.171.353,1.95,1.95,0,0,0,.75.413,2.722,2.722,0,0,0,.421.522C.327.559.249.593.186.614a.181.181,0,0,1-.139.01A.081.081,0,0,1,0,.565.1.1,0,0,1,.03.493.6.6,0,0,1,.124.406C.165.375.214.34.269.3a1.574,1.574,0,0,1,.9-.3,1.479,1.479,0,0,1,.9.261.559.559,0,0,1,.12.085A.475.475,0,0,1,2.27.439a.274.274,0,0,1,.036.079C2.312.54,2.31.556,2.3.563Z" transform="translate(44.259 230.627)" fill="#263238"/><path d="M1.144.5a.583.583,0,0,1-.533.6A.56.56,0,0,1,0,.6.583.583,0,0,1,.544,0a.551.551,0,0,1,.6.5Z" transform="translate(39.57 232.795)" fill="#263238"/><path d="M2.281.573c-.018.018-.058.012-.119-.006S2.02.519,1.922.487A2.717,2.717,0,0,0,1.579.4,1.974,1.974,0,0,0,1.149.362,2.059,2.059,0,0,0,.721.423,2.905,2.905,0,0,0,.381.532C.284.569.2.6.144.624s-.1.027-.118.01A.08.08,0,0,1,0,.575.132.132,0,0,1,.028.5.49.49,0,0,1,.11.416a1.522,1.522,0,0,1,.138-.1A1.574,1.574,0,0,1,1.15,0a1.509,1.509,0,0,1,.9.261,1.09,1.09,0,0,1,.12.1.63.63,0,0,1,.077.091.247.247,0,0,1,.036.072A.053.053,0,0,1,2.281.573Z" transform="translate(38.427 230.788)" fill="#263238"/><path d="M.431,5.131q.122-.04.246-.073T.927,5q.126-.026.252-.046t.255-.032a.686.686,0,0,0,.117-.01.443.443,0,0,0,.1-.029.233.233,0,0,0,.075-.05.139.139,0,0,0,.038-.072A.833.833,0,0,0,1.646,4.3l-.121-.288L1.4,3.715l-.126-.3q-.063-.153-.127-.311Q.973,2.727.815,2.345t-.3-.77Q.372,1.187.246.793T.01,0Q.215.361.4.731t.363.746q.174.377.331.761t.3.774q.06.154.121.307t.122.3l.12.293.116.284a1.005,1.005,0,0,1,.1.623.4.4,0,0,1-.251.241l-.068,0-.068,0-.068,0-.068,0q-.126.026-.253.044t-.256.026Q.817,5.14.688,5.14T.431,5.131Z" transform="translate(42.332 231.02)" fill="#263238"/><path d="M.006,0a3.23,3.23,0,0,0,.31.463,5.108,5.108,0,0,0,1.018.978,5.6,5.6,0,0,0,1.857.878,7.432,7.432,0,0,0,2.827.163l0-1.005a11.27,11.27,0,0,1-1.57-.051,11.264,11.264,0,0,1-1.54-.267A11.265,11.265,0,0,1,1.42.682,11.263,11.263,0,0,1,.006,0Z" transform="translate(37.412 241.526)" fill="#eb996e"/><path d="M2.819.427C2.819.47,2.777.5,2.7.518a1.853,1.853,0,0,1-.31.042c-.129.01-.281.018-.445.031S1.606.62,1.425.648,1.074.709.917.742.618.808.5.832A1.906,1.906,0,0,1,.19.875C.111.877.057.864.032.829A.139.139,0,0,1,0,.731.173.173,0,0,1,.048.639a.785.785,0,0,1,.109-.1C.2.507.255.47.313.427a2.3,2.3,0,0,1,1-.4,2.34,2.34,0,0,1,1.1.1A1.334,1.334,0,0,1,2.608.2a.715.715,0,0,1,.131.08A.272.272,0,0,1,2.81.359.082.082,0,0,1,2.819.427Z" transform="translate(37.633 228.706)" fill="#263238"/><path d="M2.081.613a.194.194,0,0,1-.139.059A1.277,1.277,0,0,1,1.705.665c-.093-.009-.2-.022-.312-.033s-.237-.02-.365-.02S.779.62.666.629.451.65.362.658A1.309,1.309,0,0,1,.141.663.139.139,0,0,1,.027.613.174.174,0,0,1,0,.525.161.161,0,0,1,.026.441.38.38,0,0,1,.1.354,1.1,1.1,0,0,1,.228.261,1.453,1.453,0,0,1,1.07,0a1.419,1.419,0,0,1,.841.261.713.713,0,0,1,.1.1.5.5,0,0,1,.061.1.27.27,0,0,1,.025.087A.112.112,0,0,1,2.081.613Z" transform="translate(44.234 228.701)" fill="#263238"/><path d="M13.979,3.221a2,2,0,0,0-1.762-1.064,3.872,3.872,0,0,0-2.005.662A7.8,7.8,0,0,0,8.459,4.366c-.528.6-1.013,1.277-1.5,1.951S6,7.666,5.474,8.276a8.051,8.051,0,0,1-1.731,1.57,1.452,1.452,0,0,1-.512.195c-.178.035-.361.049-.539.067a2.6,2.6,0,0,0-.515.089,1,1,0,0,0-.439.262,1.882,1.882,0,0,0-.546,2.059q-.152-.17-.291-.35T.635,11.8Q.51,11.605.4,11.406T.192,11a2.123,2.123,0,0,1,0-1.747,2.3,2.3,0,0,1,.185-.288c.068-.093.14-.183.208-.275a2.529,2.529,0,0,0,.188-.282A1.18,1.18,0,0,0,.9,8.1q.006-.15.005-.3T.9,7.5Q.888,7.35.872,7.2T.833,6.9A2.538,2.538,0,0,1,1.207,5.75,11.712,11.712,0,0,1,5.356,1.124,7.557,7.557,0,0,1,9.256,0a5.775,5.775,0,0,1,3.764,1.374c.15.133.3.267.442.405a2.978,2.978,0,0,1,.369.43,1.345,1.345,0,0,1,.213.471,1.028,1.028,0,0,1-.026.53" transform="translate(31.882 222.148)" fill="#263238"/><path d="M2.4.234A1.565,1.565,0,0,0,.368.567,1.571,1.571,0,0,0,.026,1.821a1.811,1.811,0,0,0,2.452,1.8c0-.018-.005-.238-.013-.559s-.018-.741-.028-1.16S2.416,1.065,2.408.753Z" transform="translate(31.242 232.934)" fill="#ffbe9d"/><path d="M1.155,1.922h0l-.012.007-.033.018-.064.035a.4.4,0,0,1-.311,0,1,1,0,0,1-.5-.924,1.3,1.3,0,0,1,.112-.6A.894.894,0,0,1,.406.33.625.625,0,0,1,.478.23.387.387,0,0,1,.56.159.238.238,0,0,1,.648.124.21.21,0,0,1,.9.235Q.9.261.9.282C.9.3.9.307.9.318S.9.336.9.342.9.353.9.355s0,0,0,0S.9.351.9.341.9.318.9.3.9.25.9.215A.27.27,0,0,0,.808.064.32.32,0,0,0,.568,0,.624.624,0,0,0,.136.385,1.511,1.511,0,0,0,0,1.068a1.081,1.081,0,0,0,.629,1A.441.441,0,0,0,1.014,2,.324.324,0,0,0,1.1,1.981a.131.131,0,0,0,.042-.027.064.064,0,0,0,.015-.023A.031.031,0,0,0,1.155,1.922Z" transform="translate(31.815 233.727)" fill="#eb996e"/><path d="M0,8.46l.141-.09L.217,8.32l.094-.06L.42,8.188C.459,8.161.5,8.131.542,8.1q.173-.136.339-.28t.324-.3q.158-.152.309-.312t.294-.327q.206-.254.4-.513t.39-.524q.191-.265.375-.535t.36-.545q.214-.335.442-.661t.468-.642q.24-.316.493-.623t.518-.6q.143-.147.294-.287t.307-.272q.157-.132.321-.256t.333-.239q.162-.1.329-.2T7.179.812q.172-.083.349-.156T7.885.521Q8.19.413,8.5.334T9.135.206q.318-.049.641-.068T10.421.13q.218.008.435.031t.431.059q.215.036.426.087t.42.114a.542.542,0,0,1,.141.019A.8.8,0,0,1,12.4.485c.038.017.072.035.1.05a.574.574,0,0,0,.084.036h.16L12.594.5A.255.255,0,0,1,12.51.483c-.031-.011-.065-.027-.1-.045S12.331.4,12.289.382A1.3,1.3,0,0,0,12.154.33Q11.944.258,11.73.2T11.3.1q-.217-.04-.437-.064T10.421.009q-.328-.017-.655,0t-.65.06q-.323.045-.642.121T7.845.37q-.183.062-.361.136T7.132.664q-.173.084-.341.179t-.33.2q-.174.115-.342.24t-.327.259q-.16.134-.311.278t-.295.3q-.269.3-.524.605t-.5.627Q3.924,3.668,3.7,4t-.44.668c-.136.2-.266.4-.394.593s-.252.378-.375.556-.245.349-.368.511-.246.315-.371.458q-.139.169-.286.331t-.3.317q-.155.155-.317.3t-.332.285c-.04.033-.079.063-.116.091l-.1.076L.2,8.248.131,8.3a.383.383,0,0,0-.054.05A.543.543,0,0,0,.035,8.4c-.011.016-.02.031-.026.041Z" transform="translate(32.648 223.534)" fill="#fff"/><path d="M.032,3.514A3.676,3.676,0,0,0,.318,5.442a1.279,1.279,0,0,0,1.663.613,1.843,1.843,0,0,0,.645-1.416c.046-.387.084-.774.12-1.161s.067-.775.1-1.162.065-.774.1-1.16S3.026.384,3.077,0Z" transform="translate(33.236 229.113)" fill="#263238"/><path d="M11.955.051,11.8.046l-.15,0-.15,0-.15.006q-.2,0-.407.025t-.4.066q-.2.043-.393.105T9.77.393q-.133.053-.262.114T9.253.635Q9.127.7,9.006.778T8.767.934q-.132.094-.26.191t-.254.2q-.126.1-.248.207t-.241.215q-.278.248-.54.511T6.716,2.8q-.245.279-.473.573t-.438.6c-.075.11-.148.221-.218.332s-.139.222-.207.332-.135.22-.2.329-.136.216-.207.321-.138.2-.212.3-.15.193-.228.286-.16.184-.244.272-.171.174-.26.258q-.23.206-.47.4t-.492.369q-.251.177-.513.34t-.532.31q-.226.128-.434.238c-.138.073-.27.141-.393.2s-.239.119-.346.171l-.292.142-.4.191L0,8.814l.141-.08.391-.211.285-.149.34-.178q.183-.1.389-.21t.432-.245q.264-.152.519-.318T3,7.076q.245-.18.48-.373t.459-.4q.129-.124.251-.255t.236-.268q.114-.137.221-.28t.206-.292q.1-.154.2-.315t.2-.326q.1-.165.206-.331T5.674,3.9q.215-.311.45-.608t.486-.578q.252-.282.52-.547t.554-.515q.119-.109.241-.215t.248-.207q.126-.1.254-.2T8.687.844Q8.8.762,8.926.687T9.173.544Q9.3.476,9.428.416T9.69.3A4.007,4.007,0,0,1,11.314,0l.113.006.113.011.113.015.112.019Z" transform="translate(33.287 224.194)" fill="#455a64"/><path d="M2.709,3,2.7,3.012l-.04.031L2.59,3.09,2.5,3.152l-.592.371-.2.12a.58.58,0,0,1-.129.067.574.574,0,0,1-.07.021.582.582,0,0,1-.072.012l-.04.008-.04,0-.04,0-.04-.008a.22.22,0,0,1-.09-.161.524.524,0,0,1,.1-.311q.079-.132.161-.271l.166-.284.174-.3q.089-.15.183-.3l.09.09q-.087.066-.178.125t-.187.111q-.1.052-.2.1t-.2.08q-.1.033-.209.058t-.212.039q-.107.015-.215.021t-.216,0l-.055.006-.055,0-.055,0L.224,2.74a.27.27,0,0,1-.19-.161.252.252,0,0,1,0-.241l.03-.04L.1,2.26.13,2.223l.035-.035q.117-.119.225-.246T.6,1.683q.1-.133.19-.273t.171-.286Q1.03.988,1.1.849T1.225.57Q1.287.43,1.344.287T1.453,0q0,.042-.009.085T1.43.168Q1.421.21,1.409.25T1.382.331q-.032.109-.07.217T1.232.761Q1.189.867,1.141.97t-.1.2q-.078.15-.166.294T.687,1.75q-.1.137-.206.267t-.225.252c-.023.023-.045.046-.064.069a.5.5,0,0,0-.05.069.194.194,0,0,0-.026.065.086.086,0,0,0,.009.058.15.15,0,0,0,.044.047.281.281,0,0,0,.067.035.456.456,0,0,0,.084.022.6.6,0,0,0,.095.007q.1,0,.206,0t.205-.021q.1-.015.2-.039t.2-.058q.1-.032.192-.073T1.6,2.359q.091-.048.177-.1t.168-.118l.281-.221-.181.3L1.355,3.363a.455.455,0,0,0-.063.114.453.453,0,0,0-.028.127.1.1,0,0,0,.011.047.091.091,0,0,0,.029.034.118.118,0,0,0,.044.019.172.172,0,0,0,.056,0q.056-.014.111-.034t.108-.043q.053-.024.1-.052t.1-.061l.622-.341Z" transform="translate(30.453 228.139)" fill="#fff"/><path d="M.01.633A.813.813,0,0,1,.823,0a.84.84,0,0,1,.661.442,1.006,1.006,0,0,1,.059.8V1.3a.9.9,0,0,1-1,.251A.862.862,0,0,1,.01.633Z" transform="translate(40.435 236.724)" fill="#eb996e"/><path d="M1.767,1.708c0-.023-.039-.034-.106-.047s-.161-.027-.27-.055a1.564,1.564,0,0,1-.36-.14,1.387,1.387,0,0,1-.376-.3A1.864,1.864,0,0,1,.38.753,2.325,2.325,0,0,1,.235.375C.2.263.181.168.163.1S.129,0,.106,0A.078.078,0,0,0,.051.032.206.206,0,0,0,.018.114.8.8,0,0,0,0,.247C0,.3,0,.362.005.432a1.656,1.656,0,0,0,.259.784,1.65,1.65,0,0,0,.17.221,1.359,1.359,0,0,0,.922.412,1.2,1.2,0,0,0,.178-.019.7.7,0,0,0,.129-.036.289.289,0,0,0,.078-.044A.061.061,0,0,0,1.767,1.708Z" transform="translate(40.651 236.312)" fill="#263238"/><path d="M1.756.362,6.039,0s.147.2.419.485A9.4,9.4,0,0,0,7.62,1.533a7.3,7.3,0,0,0,1.764,1,5.094,5.094,0,0,0,2.225.349,5.211,5.211,0,0,0,1.911-.477A3.313,3.313,0,0,0,14.6,1.593a2.8,2.8,0,0,0,.473-.769,1.787,1.787,0,0,0,.106-.341s.358.069.944.224a23.925,23.925,0,0,1,2.311.741,19.462,19.462,0,0,1,2.893,1.359,11.937,11.937,0,0,1,2.691,2.079l.07.091L26.4,9.11c-.487.44-.962.89-1.433,1.332s-.937.874-1.408,1.278a15.725,15.725,0,0,1-1.434,1.11,8.592,8.592,0,0,1-1.511.828,23.69,23.69,0,0,1-5.06,1.759,23.655,23.655,0,0,1-5.257.576,23.622,23.622,0,0,1-5.251-.607A23.594,23.594,0,0,1,.006,13.6Z" transform="translate(28.263 244.692)" fill="#ff725e"/><path d="M8.193,0q-.467.078-.926.191T6.359.45Q5.91.6,5.472.775t-.862.391A7.144,7.144,0,0,0,2.621,3.038,14.822,14.822,0,0,0,1.183,5.423,21.381,21.381,0,0,0,.31,7.474c-.2.534-.294.872-.294.872q.779.84,1.633,1.6t1.776,1.428q.922.67,1.907,1.248t2.024,1.059q.521-.706.99-1.446t.885-1.51q.416-.77.776-1.569t.665-1.622q.018-.531.009-1.063t-.042-1.061q-.034-.53-.093-1.058T10.4,3.3l-.345-.505c-.207-.3-.483-.709-.759-1.117S8.745.857,8.538.545,8.193.018,8.193,0Z" transform="translate(21.906 244.983)" fill="#ff725e"/><path d="M.7,2.968c-.018,0-.031-.043-.043-.121S.632,2.657.616,2.52s-.036-.3-.063-.478S.489,1.67.442,1.469.34,1.077.286.9.179.575.134.444.05.205.028.129,0,.008.013,0A3.344,3.344,0,0,1,.232.325,3.351,3.351,0,0,1,.411.672a3.346,3.346,0,0,1,.137.366,3.36,3.36,0,0,1,.094.381A3.1,3.1,0,0,1,.731,1.8a3.1,3.1,0,0,1,.039.389,3.1,3.1,0,0,1-.01.391A3.111,3.111,0,0,1,.7,2.968Z" transform="translate(49.767 254.547)" fill="#263238"/><path d="M0,8.028q.017-.148.038-.294t.048-.293q.027-.146.058-.291t.068-.289q.069-.349.129-.7t.111-.7Q.5,5.1.547,4.751t.075-.708c.023-.279.042-.551.058-.814s.027-.516.037-.758S.733,2,.738,1.786s.009-.416.012-.6Q.74,1.039.736.89t0-.3q0-.148.006-.3T.753,0Q.785.146.809.294t.038.3q.015.149.021.3t0,.3q.017.358.021.717t0,.717q-.008.359-.029.717T.8,4.054q-.029.359-.074.716t-.1.712q-.059.355-.132.707t-.161.7q-.024.147-.056.292T.2,7.47q-.042.142-.093.282T0,8.028Z" transform="translate(29.262 250.584)" fill="#263238"/><path d="M44.609,22.244q-.012-.043-.021-.087t-.015-.088q-.006-.044-.01-.088t0-.089c0-.065,0-.136,0-.213s0-.159-.008-.247-.012-.181-.023-.281-.026-.2-.046-.315c0-.058,0-.117,0-.179s0-.124-.005-.189-.008-.131-.015-.2-.016-.137-.029-.207-.024-.142-.036-.216-.023-.15-.034-.227l-.034-.236q-.017-.12-.036-.245-.039-.289-.088-.576t-.107-.572q-.059-.285-.127-.568t-.146-.564q-.2-.775-.449-1.532t-.561-1.492q-.308-.735-.671-1.446T41.366,11q-.543-.907-1.169-1.755T38.869,7.613q-.7-.782-1.478-1.5t-1.617-1.35A21.653,21.653,0,0,0,26.545.686a21.975,21.975,0,0,0-11.5,1q-.367.134-.73.28t-.72.3q-.357.158-.71.328t-.7.352q-.35.192-.692.4t-.678.42q-.335.216-.663.443t-.647.467q-.329.243-.65.5t-.632.519q-.312.265-.614.54t-.595.561q-.29.3-.569.607T5.9,8.027q-.269.317-.528.644t-.506.661q-.511.685-.965,1.407T3.05,12.218q-.394.755-.728,1.541t-.6,1.6A21.7,21.7,0,0,0,1.676,29.2q.264.813.593,1.6t.719,1.544q.39.757.841,1.48t.959,1.409q.245.337.5.664t.524.646q.268.318.546.627t.568.608q.291.286.591.561t.609.541q.309.266.627.521t.644.5q.32.239.649.467t.664.444q.336.216.679.421t.693.4q.346.182.7.353t.709.329q.357.159.72.305t.73.281a21.763,21.763,0,0,0,20.778-3.089q.845-.639,1.624-1.354t1.484-1.5q.705-.784,1.334-1.635t1.175-1.759q.417-.684.781-1.4t.675-1.448q.31-.736.565-1.494t.454-1.534q.078-.281.147-.564t.128-.569q.059-.285.109-.573t.09-.576a1.835,1.835,0,0,1,.018-.245c.011-.08.026-.159.041-.236s.032-.153.047-.227.027-.146.035-.217.011-.139.014-.207,0-.134,0-.2,0-.128.008-.189a1.321,1.321,0,0,1,.025-.179c0-.111,0-.215.01-.314s.014-.19.023-.275.018-.162.027-.232.016-.131.021-.184q0-.046,0-.091t.01-.091q.006-.045.015-.09t.02-.089q0,.045,0,.09t0,.09q0,.045,0,.09t0,.09v.217c0,.077,0,.16,0,.247s0,.181,0,.281,0,.206,0,.319q0,.087,0,.179t0,.189q0,.1,0,.2t0,.207a2.028,2.028,0,0,1-.013.218c-.008.075-.02.152-.032.23s-.027.159-.04.24-.026.163-.036.246q-.031.293-.074.584t-.1.58q-.054.289-.12.576t-.143.571q-.186.788-.431,1.559t-.548,1.519q-.3.749-.662,1.473t-.774,1.421a22.32,22.32,0,0,1-26.828,9.678q-.763-.265-1.5-.587t-1.451-.7q-.711-.379-1.392-.812t-1.327-.919q-.336-.248-.663-.508t-.645-.53q-.318-.271-.627-.552t-.608-.573q-.295-.307-.579-.624t-.558-.643q-.274-.326-.537-.661T4.4,35.654q-.521-.7-.984-1.445t-.862-1.517q-.4-.776-.737-1.582t-.608-1.64a22.15,22.15,0,0,1,.044-14.175q.275-.832.617-1.638t.746-1.58q.4-.774.871-1.514t.992-1.441q.253-.343.517-.677t.54-.659q.275-.325.562-.641t.583-.621q.3-.291.61-.571t.629-.55q.319-.27.647-.529t.665-.506q.328-.243.664-.474t.68-.451q.344-.22.7-.427t.71-.4q.354-.186.715-.359t.727-.334q.366-.161.738-.308t.749-.282A22.44,22.44,0,0,1,26.656.385a22.288,22.288,0,0,1,15.01,10.593q.412.695.769,1.418t.658,1.471q.3.748.544,1.517t.427,1.557q.076.284.142.571t.119.576q.054.289.1.58t.072.584a2.039,2.039,0,0,0,.016.245c.01.08.023.159.036.237s.028.154.04.23.022.149.027.222.007.143.008.211,0,.134,0,.2,0,.126,0,.187,0,.12,0,.177q0,.166,0,.315t0,.282q0,.133,0,.25t0,.219c0,.018,0,.037,0,.055s0,.037,0,.055,0,.037,0,.055,0,.037,0,.055Z" transform="translate(15.956 216.388)" fill="#263238"/></g><path d="M6.846,11.578q-.839.4-2.19.4-1.762,0-2.771-1.029T.879,8.209q0-1.825,1.137-2.959T4.96,4.115q1.121,0,1.89.281V6.045Q6.081,5.589,5.1,5.589q-1.078,0-1.741.674T2.694,8.087q0,1.1.623,1.758T5,10.5q1.009,0,1.848-.488Zm3.775.4q-1.367,0-2.149-.761T7.691,9.153q0-1.347.813-2.108T10.7,6.284q1.361,0,2.135.761t.774,2.013q0,1.353-.8,2.138T10.621,11.981Zm.044-4.414q-.6,0-.929.408T9.4,9.132q0,1.565,1.27,1.565,1.212,0,1.213-1.607Q11.888,7.567,10.666,7.567Zm9.317,4.281H18.3V8.829q0-1.262-.908-1.262-.438,0-.721.334t-.283.849v3.1H14.7V6.416h1.687v.859h.021q.6-.992,1.757-.992,1.815,0,1.815,2.238Zm4.64-.064q-.374.2-1.127.2-1.784,0-1.784-1.841V7.652h-.886V6.416h.886V5.244l1.682-.477V6.416h1.228V7.652H23.394v2.2q0,.849.678.849.267,0,.55-.154Zm5.5.064h-1.6v-.78H28.5q-.55.913-1.628.913-.8,0-1.252-.448t-.457-1.2q0-1.581,1.884-1.825l1.484-.2q0-.891-.972-.891T25.706,8V6.74q.352-.18.964-.318t1.113-.138q2.338,0,2.339,2.318ZM28.536,9.641V9.275l-.993.127q-.822.106-.822.737,0,.286.2.47t.542.183q.475,0,.774-.326T28.536,9.641ZM35.6,11.652q-.571.329-1.65.329-1.26,0-2.04-.759t-.781-1.958q0-1.384.834-2.183t2.234-.8q.966,0,1.4.255V7.96q-.529-.392-1.18-.392-.726,0-1.15.422t-.424,1.164q0,.721.406,1.133t1.116.411q.63,0,1.233-.393Zm4.411.133q-.374.2-1.127.2-1.784,0-1.785-1.841l0-2.488h-.886V6.416H37.1V5.244l1.681-.477V6.416h1.228V7.652H38.781l0,2.2q0,.849.679.849.267,0,.55-.154Z" transform="translate(69.079 34.487)"/><g transform="translate(132.226 124.228)" clip-path="url(#a)"><g transform="translate(0.001 0)"><path d="M2.239,0a1.209,1.209,0,0,0-.515.257C1.488.42,1.208.64.942.861s-.516.446-.692.616-.275.288-.24.3.3.465.727,1.144S1.755,4.5,2.442,5.4A15.042,15.042,0,0,0,4.722,7.854,3.955,3.955,0,0,0,7.176,8.94a3.336,3.336,0,0,0,1.7-.394,1.3,1.3,0,0,0,.6-.8,1.751,1.751,0,0,0,0-.785,1.94,1.94,0,0,0-.109-.354l-1.747-1.6s-.068.05-.177.122-.261.165-.428.252a2.626,2.626,0,0,1-.527.213.775.775,0,0,1-.471,0,2.539,2.539,0,0,1-.581-.436c-.241-.218-.513-.49-.768-.755S4.173,3.885,4,3.693s-.287-.318-.287-.318A2.281,2.281,0,0,0,3.874,3.2a2.459,2.459,0,0,0,.3-.45,1.377,1.377,0,0,0,.166-.606A.948.948,0,0,0,4.091,1.5a6.175,6.175,0,0,0-.6-.586C3.283.731,3.075.57,2.89.435S2.541.192,2.425.117,2.239,0,2.239,0Z" transform="translate(0 0.368)" fill="#fff"/><g transform="translate(-0.001 0)"><path d="M1.119,1.444l0,0L1.1,1.46l-.017.017L1.067,1.5c-.029.028-.065.063-.1.108a1,1,0,0,0-.21.4,1.246,1.246,0,0,0-.04.317,2.1,2.1,0,0,0,.1.62,4.293,4.293,0,0,0,.388.865A8.9,8.9,0,0,0,2,4.947,17.588,17.588,0,0,0,3.309,6.39a17.632,17.632,0,0,0,1.444,1.3,8.978,8.978,0,0,0,1.141.786,4.353,4.353,0,0,0,.868.387,2.137,2.137,0,0,0,.622.1h.01a1.254,1.254,0,0,0,.318-.04,1,1,0,0,0,.4-.21c.045-.038.08-.074.108-.1l.024-.024.022-.021.019-.017L8.3,8.538q.176-.177.31-.332a3.165,3.165,0,0,0,.222-.286,1.353,1.353,0,0,0,.133-.24.5.5,0,0,0,.043-.193.406.406,0,0,0-.053-.182,1.17,1.17,0,0,0-.144-.2c-.061-.072-.135-.149-.218-.231s-.176-.17-.275-.264l-.1-.092-.1-.1-.1-.1L7.91,6.213a1.278,1.278,0,0,0-.253-.2.525.525,0,0,0-.22-.073.676.676,0,0,0-.226.024c-.081.02-.169.051-.271.087a3.432,3.432,0,0,1-.467.138,1.666,1.666,0,0,1-.567.02,1.957,1.957,0,0,1-.687-.243,3.894,3.894,0,0,1-.829-.65,3.892,3.892,0,0,1-.655-.825A1.944,1.944,0,0,1,3.489,3.8a1.65,1.65,0,0,1,.018-.565,3.419,3.419,0,0,1,.137-.466c.036-.1.066-.19.086-.271a.673.673,0,0,0,.023-.226.521.521,0,0,0-.074-.22A1.272,1.272,0,0,0,3.475,1.8l-.108-.108-.1-.105-.1-.1-.093-.1c-.094-.1-.181-.19-.263-.272S2.652.963,2.58.9a1.163,1.163,0,0,0-.2-.142A.406.406,0,0,0,2.2.708h0A.51.51,0,0,0,2,.753a1.383,1.383,0,0,0-.243.137,3.319,3.319,0,0,0-.293.231q-.16.139-.346.325h0ZM7.386,9.676A2.937,2.937,0,0,1,6.434,9.5a5.637,5.637,0,0,1-1.083-.524,10.711,10.711,0,0,1-1.21-.871q-.636-.522-1.333-1.215T1.582,5.559A10.644,10.644,0,0,1,.7,4.351,5.569,5.569,0,0,1,.178,3.269,2.889,2.889,0,0,1,0,2.319,1.956,1.956,0,0,1,.072,1.8a1.688,1.688,0,0,1,.344-.651c.06-.071.114-.124.153-.161L.578.982.591.969.6.955l.01-.01C.784.776.939.632,1.084.512A3.235,3.235,0,0,1,1.492.217,1.652,1.652,0,0,1,1.859.05,1.137,1.137,0,0,1,2.2,0a1.048,1.048,0,0,1,.372.074,1.487,1.487,0,0,1,.339.192,3.24,3.24,0,0,1,.329.285c.111.107.224.226.343.351L3.677,1l.095.1.1.1.1.1a1.85,1.85,0,0,1,.367.493,1.176,1.176,0,0,1,.121.447,1.375,1.375,0,0,1-.038.4A3.523,3.523,0,0,1,4.315,3a2.684,2.684,0,0,0-.108.365,1,1,0,0,0,0,.39,1.34,1.34,0,0,0,.2.464,3.475,3.475,0,0,0,.491.589,3.486,3.486,0,0,0,.592.489,1.348,1.348,0,0,0,.466.194,1.007,1.007,0,0,0,.39-.005A2.663,2.663,0,0,0,6.7,5.379a3.586,3.586,0,0,1,.36-.111,1.386,1.386,0,0,1,.4-.039,1.183,1.183,0,0,1,.449.12,1.858,1.858,0,0,1,.5.365l.1.1.1.1.1.093.094.089c.126.119.246.232.354.343a3.256,3.256,0,0,1,.288.329,1.487,1.487,0,0,1,.195.339,1.042,1.042,0,0,1,.075.372,1.12,1.12,0,0,1-.049.343,1.649,1.649,0,0,1-.166.366,3.233,3.233,0,0,1-.294.408c-.121.145-.265.3-.434.47l-.3-.2.254.247c-.037.038-.09.093-.161.153a1.694,1.694,0,0,1-.652.345,1.971,1.971,0,0,1-.517.069Z" transform="translate(0 0)" fill="#130f26"/></g></g><g transform="translate(0.105 54.836)"><path d="M2.244,0A1.209,1.209,0,0,0,1.728.26C1.492.422,1.21.643.944.865s-.517.448-.693.619-.276.289-.241.3.3.467.729,1.149,1.02,1.587,1.709,2.49a15.1,15.1,0,0,0,2.286,2.47,3.958,3.958,0,0,0,2.46,1.091,3.335,3.335,0,0,0,1.7-.4,1.306,1.306,0,0,0,.6-.8A1.755,1.755,0,0,0,9.5,7a1.983,1.983,0,0,0-.109-.356L7.639,5.033s-.067.05-.177.122-.261.166-.429.253a2.647,2.647,0,0,1-.528.214.773.773,0,0,1-.472,0,2.568,2.568,0,0,1-.583-.438c-.241-.22-.514-.492-.77-.759s-.5-.527-.672-.72-.288-.32-.288-.32a2.209,2.209,0,0,0,.163-.177,2.487,2.487,0,0,0,.3-.452,1.386,1.386,0,0,0,.165-.609A.952.952,0,0,0,4.1,1.5,6.182,6.182,0,0,0,3.5.915C3.291.734,3.082.573,2.9.437S2.547.193,2.431.117,2.244,0,2.244,0Z" transform="translate(0 0.37)" fill="#fff"/><g transform="translate(-0.001 0)"><path d="M1.122,1.451l0,0-.011.012-.017.017-.021.021c-.029.028-.065.063-.1.108a1,1,0,0,0-.21.4,1.255,1.255,0,0,0-.04.318,2.115,2.115,0,0,0,.1.623,4.318,4.318,0,0,0,.389.87A8.948,8.948,0,0,0,2,4.971a17.658,17.658,0,0,0,1.316,1.45A17.689,17.689,0,0,0,4.764,7.728a9,9,0,0,0,1.144.79,4.359,4.359,0,0,0,.87.389,2.137,2.137,0,0,0,.624.1h.01a1.254,1.254,0,0,0,.319-.04,1,1,0,0,0,.4-.211c.045-.038.08-.075.108-.1l.024-.025.022-.021L8.3,8.593l.016-.014q.177-.178.31-.334a3.18,3.18,0,0,0,.223-.288,1.36,1.36,0,0,0,.134-.241.505.505,0,0,0,.043-.194.409.409,0,0,0-.054-.183,1.176,1.176,0,0,0-.144-.2c-.061-.072-.135-.149-.218-.232s-.176-.171-.276-.265l-.1-.092-.1-.1-.1-.1-.108-.106a1.281,1.281,0,0,0-.254-.2.525.525,0,0,0-.221-.074.676.676,0,0,0-.227.024c-.081.02-.169.051-.272.088a3.433,3.433,0,0,1-.468.138,1.666,1.666,0,0,1-.568.02,1.959,1.959,0,0,1-.689-.244A3.9,3.9,0,0,1,4.4,5.336a3.909,3.909,0,0,1-.656-.829A1.956,1.956,0,0,1,3.5,3.819a1.662,1.662,0,0,1,.018-.568,3.442,3.442,0,0,1,.137-.468c.036-.1.066-.191.087-.272a.678.678,0,0,0,.023-.227.524.524,0,0,0-.074-.221,1.277,1.277,0,0,0-.206-.253L3.375,1.7l-.1-.106-.1-.1-.094-.1c-.094-.1-.182-.191-.264-.273S2.658.967,2.586.906a1.166,1.166,0,0,0-.2-.143A.406.406,0,0,0,2.2.711h0A.51.51,0,0,0,2,.757,1.385,1.385,0,0,0,1.76.895a3.328,3.328,0,0,0-.294.232q-.16.139-.347.327h0ZM7.4,9.723a2.938,2.938,0,0,1-.954-.176A5.645,5.645,0,0,1,5.364,9.02a10.737,10.737,0,0,1-1.213-.875q-.638-.524-1.336-1.221T1.586,5.586a10.7,10.7,0,0,1-.88-1.214A5.6,5.6,0,0,1,.179,3.285,2.909,2.909,0,0,1,0,2.33a1.97,1.97,0,0,1,.068-.517,1.7,1.7,0,0,1,.345-.654C.478,1.087.532,1.034.571,1L.58.987.593.973.606.96.616.95C.785.78.941.635,1.087.514A3.243,3.243,0,0,1,1.5.218,1.655,1.655,0,0,1,1.863.051,1.137,1.137,0,0,1,2.209,0a1.049,1.049,0,0,1,.373.074,1.49,1.49,0,0,1,.34.193,3.25,3.25,0,0,1,.33.286c.111.108.224.227.344.352l.091.1.095.1.1.1.1.105a1.859,1.859,0,0,1,.368.5,1.183,1.183,0,0,1,.121.449,1.385,1.385,0,0,1-.038.4,3.547,3.547,0,0,1-.111.361,2.7,2.7,0,0,0-.108.367,1.011,1.011,0,0,0,0,.391,1.348,1.348,0,0,0,.2.466,3.49,3.49,0,0,0,.493.592,3.5,3.5,0,0,0,.593.491,1.349,1.349,0,0,0,.467.2,1.007,1.007,0,0,0,.391-.005,2.665,2.665,0,0,0,.365-.11,3.588,3.588,0,0,1,.361-.112,1.386,1.386,0,0,1,.4-.039,1.183,1.183,0,0,1,.45.12,1.862,1.862,0,0,1,.5.367l.1.1.1.1.1.094.094.09c.126.12.246.233.355.345a3.27,3.27,0,0,1,.288.331,1.5,1.5,0,0,1,.195.34,1.049,1.049,0,0,1,.075.374,1.128,1.128,0,0,1-.05.345,1.659,1.659,0,0,1-.166.368,3.248,3.248,0,0,1-.295.41c-.121.146-.265.3-.435.472l-.3-.2.255.249c-.038.039-.091.093-.161.153a1.7,1.7,0,0,1-.654.347,1.972,1.972,0,0,1-.518.069Z" transform="translate(0 0)" fill="#130f26"/></g></g><g transform="translate(0.21 109.936)"><path d="M2.25,0a1.212,1.212,0,0,0-.517.26C1.5.424,1.213.646.947.869s-.518.45-.7.622-.277.291-.241.3.3.469.73,1.155,1.023,1.6,1.713,2.5A15.162,15.162,0,0,0,4.745,7.93a3.966,3.966,0,0,0,2.466,1.1,3.334,3.334,0,0,0,1.7-.4,1.311,1.311,0,0,0,.606-.806,1.767,1.767,0,0,0,0-.792,1.993,1.993,0,0,0-.109-.358L7.658,5.057s-.068.05-.178.123-.262.167-.43.255a2.666,2.666,0,0,1-.53.215.771.771,0,0,1-.473,0,2.552,2.552,0,0,1-.585-.44c-.242-.221-.515-.495-.772-.763s-.5-.529-.673-.723-.288-.321-.288-.321a2.213,2.213,0,0,0,.163-.178,2.471,2.471,0,0,0,.3-.454,1.389,1.389,0,0,0,.166-.612A.959.959,0,0,0,4.11,1.51a6.153,6.153,0,0,0-.6-.592C3.3.738,3.09.575,2.9.439S2.554.194,2.437.118,2.25,0,2.25,0Z" transform="translate(0 0.372)" fill="#fff"/><g transform="translate(-0.001 0)"><path d="M1.125,1.458l0,0-.011.012-.017.017-.021.021c-.029.028-.065.064-.1.109a1.008,1.008,0,0,0-.211.4,1.264,1.264,0,0,0-.04.32,2.129,2.129,0,0,0,.1.626,4.344,4.344,0,0,0,.39.874A8.992,8.992,0,0,0,2.006,5,17.728,17.728,0,0,0,3.325,6.452,17.746,17.746,0,0,0,4.775,7.765a9.02,9.02,0,0,0,1.147.794,4.364,4.364,0,0,0,.872.391,2.138,2.138,0,0,0,.625.1h.01a1.254,1.254,0,0,0,.319-.041,1.006,1.006,0,0,0,.4-.212c.045-.039.081-.075.109-.1l.024-.025.022-.021.019-.018.016-.014q.177-.179.311-.335A3.194,3.194,0,0,0,8.875,8a1.368,1.368,0,0,0,.134-.242.509.509,0,0,0,.043-.195A.412.412,0,0,0,9,7.376a1.181,1.181,0,0,0-.144-.205c-.061-.073-.135-.15-.219-.233s-.176-.171-.276-.267l-.1-.093-.1-.1-.1-.1-.108-.107a1.285,1.285,0,0,0-.254-.206.526.526,0,0,0-.221-.074.676.676,0,0,0-.227.024c-.081.021-.17.052-.272.088a3.435,3.435,0,0,1-.469.139,1.666,1.666,0,0,1-.569.02,1.96,1.96,0,0,1-.691-.245,3.915,3.915,0,0,1-.833-.657,3.927,3.927,0,0,1-.658-.833,1.969,1.969,0,0,1-.247-.691,1.674,1.674,0,0,1,.018-.57,3.465,3.465,0,0,1,.137-.47c.036-.1.067-.192.087-.273A.682.682,0,0,0,3.772,2.3.528.528,0,0,0,3.7,2.073a1.283,1.283,0,0,0-.206-.254L3.383,1.71,3.28,1.6l-.1-.1-.094-.1c-.094-.1-.182-.192-.265-.275S2.664.972,2.592.911a1.168,1.168,0,0,0-.2-.143A.407.407,0,0,0,2.207.715h0a.51.51,0,0,0-.195.046A1.388,1.388,0,0,0,1.765.9a3.337,3.337,0,0,0-.295.233q-.16.14-.348.328h0Zm6.3,8.311a2.939,2.939,0,0,1-.956-.177,5.652,5.652,0,0,1-1.088-.529,10.764,10.764,0,0,1-1.216-.879q-.639-.527-1.34-1.227T1.59,5.613a10.746,10.746,0,0,1-.882-1.22A5.634,5.634,0,0,1,.179,3.3,2.93,2.93,0,0,1,0,2.341a1.984,1.984,0,0,1,.068-.52,1.707,1.707,0,0,1,.346-.657C.479,1.093.534,1.039.572,1L.581.991.594.978.607.965l.01-.01C.787.784.944.638,1.09.516a3.251,3.251,0,0,1,.41-.3A1.657,1.657,0,0,1,1.868.051,1.137,1.137,0,0,1,2.214,0a1.049,1.049,0,0,1,.374.074,1.493,1.493,0,0,1,.34.194,3.26,3.26,0,0,1,.331.287c.111.108.225.228.345.354l.091.1.1.1.1.1.1.106a1.868,1.868,0,0,1,.369.5,1.191,1.191,0,0,1,.122.451,1.4,1.4,0,0,1-.038.406,3.57,3.57,0,0,1-.111.363,2.72,2.72,0,0,0-.109.368,1.018,1.018,0,0,0,0,.393,1.357,1.357,0,0,0,.2.469,3.505,3.505,0,0,0,.494.594,3.506,3.506,0,0,0,.595.493,1.351,1.351,0,0,0,.468.2,1.007,1.007,0,0,0,.392-.005,2.666,2.666,0,0,0,.366-.111A3.59,3.59,0,0,1,7.1,5.318a1.386,1.386,0,0,1,.405-.04,1.184,1.184,0,0,1,.451.121,1.867,1.867,0,0,1,.5.369l.1.1.1.1.1.094.095.09c.127.12.247.235.356.346a3.283,3.283,0,0,1,.289.332,1.5,1.5,0,0,1,.2.342,1.056,1.056,0,0,1,.075.376,1.136,1.136,0,0,1-.05.346,1.669,1.669,0,0,1-.167.369,3.263,3.263,0,0,1-.3.412c-.121.147-.266.3-.436.475l-.3-.2.256.25c-.038.039-.091.094-.162.154a1.7,1.7,0,0,1-.656.349,1.972,1.972,0,0,1-.519.069Z" transform="translate(0 0)" fill="#130f26"/></g></g><g transform="translate(0.315 165.301)"><path d="M2.255,0a1.218,1.218,0,0,0-.519.261C1.5.426,1.216.649.949.874s-.52.452-.7.625-.277.292-.242.3.3.472.733,1.16,1.025,1.6,1.717,2.514a15.225,15.225,0,0,0,2.3,2.494,3.972,3.972,0,0,0,2.472,1.1,3.339,3.339,0,0,0,1.708-.4,1.318,1.318,0,0,0,.608-.81,1.781,1.781,0,0,0,0-.8,1.985,1.985,0,0,0-.11-.359L7.676,5.082s-.068.051-.178.123-.263.168-.431.256a2.652,2.652,0,0,1-.531.216.775.775,0,0,1-.475,0,2.577,2.577,0,0,1-.586-.442c-.242-.222-.516-.5-.774-.766s-.5-.532-.675-.727-.289-.323-.289-.323A2.316,2.316,0,0,0,3.9,3.245a2.482,2.482,0,0,0,.3-.457,1.4,1.4,0,0,0,.167-.615.965.965,0,0,0-.252-.655,6.153,6.153,0,0,0-.6-.594C3.307.742,3.1.578,2.911.442S2.56.195,2.443.119,2.255,0,2.255,0Z" transform="translate(0 0.373)" fill="#fff"/><g transform="translate(-0.001 0)"><path d="M1.127,1.465l0,0-.011.012L1.1,1.5l-.021.021c-.029.028-.065.064-.1.109a1.013,1.013,0,0,0-.211.406,1.273,1.273,0,0,0-.04.321,2.144,2.144,0,0,0,.1.629,4.371,4.371,0,0,0,.391.878,9.036,9.036,0,0,0,.8,1.156A17.8,17.8,0,0,0,3.333,6.483,17.8,17.8,0,0,0,4.787,7.8a9.041,9.041,0,0,0,1.15.8,4.369,4.369,0,0,0,.874.393,2.138,2.138,0,0,0,.627.1h.01a1.255,1.255,0,0,0,.32-.041,1.008,1.008,0,0,0,.4-.213c.045-.039.081-.075.109-.1L8.3,8.715l.022-.021.019-.018.016-.014q.178-.18.312-.337a3.208,3.208,0,0,0,.224-.29,1.375,1.375,0,0,0,.134-.243.512.512,0,0,0,.044-.2.415.415,0,0,0-.054-.184,1.187,1.187,0,0,0-.145-.206c-.062-.073-.136-.151-.219-.234S8.48,6.8,8.38,6.7l-.1-.093-.1-.1-.1-.1L7.967,6.3A1.289,1.289,0,0,0,7.712,6.1a.526.526,0,0,0-.222-.074.676.676,0,0,0-.228.024c-.081.021-.17.052-.273.088a3.437,3.437,0,0,1-.47.14,1.666,1.666,0,0,1-.571.02,1.962,1.962,0,0,1-.692-.247,3.926,3.926,0,0,1-.835-.66,3.945,3.945,0,0,1-.659-.837,1.982,1.982,0,0,1-.247-.695,1.686,1.686,0,0,1,.018-.573,3.488,3.488,0,0,1,.138-.472c.036-.1.067-.193.087-.275a.687.687,0,0,0,.023-.229.531.531,0,0,0-.074-.223A1.289,1.289,0,0,0,3.5,1.828l-.109-.11-.1-.107-.1-.1-.094-.1c-.095-.1-.183-.193-.265-.276S2.671.976,2.6.915a1.171,1.171,0,0,0-.2-.144A.407.407,0,0,0,2.212.718h0a.511.511,0,0,0-.2.046A1.39,1.39,0,0,0,1.769.9a3.347,3.347,0,0,0-.3.234q-.161.141-.349.33h0ZM7.44,9.817a2.94,2.94,0,0,1-.959-.178A5.66,5.66,0,0,1,5.39,9.107a10.791,10.791,0,0,1-1.219-.883Q3.53,7.695,2.828,6.991T1.594,5.64A10.8,10.8,0,0,1,.71,4.414a5.667,5.667,0,0,1-.531-1.1A2.95,2.95,0,0,1,0,2.352,2,2,0,0,1,.073,1.83,1.716,1.716,0,0,1,.42,1.17c.06-.072.115-.125.154-.163L.583,1,.6.983.609.969l.01-.01C.789.788.946.641,1.092.519A3.259,3.259,0,0,1,1.5.22,1.659,1.659,0,0,1,1.872.051,1.137,1.137,0,0,1,2.22,0a1.049,1.049,0,0,1,.375.075,1.5,1.5,0,0,1,.341.2,3.27,3.27,0,0,1,.331.289c.112.109.225.229.345.356l.091.1.1.1.1.1L4,1.32a1.876,1.876,0,0,1,.37.5,1.2,1.2,0,0,1,.122.454,1.4,1.4,0,0,1-.038.408,3.594,3.594,0,0,1-.111.365,2.738,2.738,0,0,0-.109.37,1.025,1.025,0,0,0,0,.4,1.365,1.365,0,0,0,.2.471,3.52,3.52,0,0,0,.495.6,3.516,3.516,0,0,0,.6.5,1.352,1.352,0,0,0,.469.2,1.007,1.007,0,0,0,.393-.005,2.668,2.668,0,0,0,.367-.111,3.592,3.592,0,0,1,.363-.113,1.386,1.386,0,0,1,.406-.04,1.185,1.185,0,0,1,.452.121,1.872,1.872,0,0,1,.5.37l.1.1.1.1.1.095.095.091c.127.121.248.236.357.348a3.3,3.3,0,0,1,.29.334,1.512,1.512,0,0,1,.2.344,1.063,1.063,0,0,1,.075.377,1.144,1.144,0,0,1-.05.348,1.679,1.679,0,0,1-.167.371,3.279,3.279,0,0,1-.3.414c-.122.147-.266.305-.437.477l-.3-.206.256.251c-.038.039-.091.094-.162.155a1.7,1.7,0,0,1-.657.35,1.972,1.972,0,0,1-.52.07Z" transform="translate(0 0)" fill="#130f26"/></g></g></g></svg>