<svg xmlns="http://www.w3.org/2000/svg" width="176.705" height="360.651" viewBox="0 0 176.705 360.651"><path d="M149.829,360.651,26.785,360.58A26.792,26.792,0,0,1,.052,333.689L.7,26.493A26.425,26.425,0,0,1,8.535,7.752,26.61,26.61,0,0,1,27.358,0l122.08.069a26.559,26.559,0,0,1,26.626,26.5l.53,307.2a26.746,26.746,0,0,1-26.764,26.881Z" transform="translate(0 0)" fill="#455a64"/><path d="M141.128.02H117.457A5.885,5.885,0,0,0,112.134,3.7a5.826,5.826,0,0,0-.421,2.279l0,4.279a5.825,5.825,0,0,1-1.638,4.161,5.867,5.867,0,0,1-4.108,1.8H59.817a5.878,5.878,0,0,1-5.328-3.677,5.819,5.819,0,0,1-.419-2.281l0-4.3A5.833,5.833,0,0,0,52.432,1.8a5.876,5.876,0,0,0-4.1-1.8H19.287A18.591,18.591,0,0,0,.615,18.5L.033,318.3a18.729,18.729,0,0,0,18.715,18.824l122.751.071a18.773,18.773,0,0,0,18.745-18.814L159.78,18.584a18.5,18.5,0,0,0-5.474-13.128A18.627,18.627,0,0,0,141.128.02Z" transform="translate(8.185 7.546)" fill="#fff"/><path d="M5.136,8.88a.479.479,0,0,1-.329-.129L.167,4.7a.456.456,0,0,1-.159-.378.478.478,0,0,1,.17-.368L4.829.1a.487.487,0,0,1,.627.745L1.244,4.338,5.456,8.025a.515.515,0,0,1-.229.837A.479.479,0,0,1,5.136,8.88Z" transform="translate(19.945 38.36)" fill="#263238"/><path d="M159.333.259c0,.035-2.23.068-6.261.1S143.206.416,136,.44,120.205.483,110.674.5,90.665.517,79.667.517,58.191.51,48.66.5,30.545.464,23.336.44,10.294.388,6.262.358,0,.293,0,.259,2.23.19,6.261.159,16.125.1,23.333.077,39.125.034,48.656.021,68.667,0,79.667,0s21.48.01,31.011.026S128.793.066,136,.092s13.041.055,17.072.084S159.333.234,159.333.259Z" transform="translate(7.683 56.874)" fill="#e0e0e0"/><path d="M3.262,1.63q.136-.08.277-.151t.286-.133q.145-.062.293-.116t.3-.1L4.646,0H6.57L6.84,1.123q.153.037.3.084t.3.1q.146.057.288.125t.279.145L9,.944l1.388,1.332-.6.994q.08.136.152.276t.134.285q.063.144.116.292t.1.3l1.137.229,0,1.918-1.126.268q-.036.153-.083.3t-.1.3q-.057.146-.125.287T9.851,8l.64.994L9.156,10.376l-1-.6q-.135.079-.275.15t-.283.133q-.143.062-.291.116t-.3.1L6.795,11.34H4.87L4.6,10.217q-.153-.037-.3-.084t-.3-.1q-.146-.057-.288-.125T3.432,9.76l-1,.636L1.048,9.064l.6-.994q-.08-.136-.151-.276T1.36,7.509q-.063-.144-.116-.292t-.1-.3L.008,6.688l0-1.918L1.132,4.5q.036-.153.084-.3t.1-.3q.057-.146.125-.287t.145-.278L.95,2.345,2.274,1.023l1,.6Zm1,2.554A2.095,2.095,0,1,0,6.49,3.707a2.065,2.065,0,0,0-2.2.476Z" transform="translate(144.781 37.122)" fill="#263238"/></svg>