<svg xmlns="http://www.w3.org/2000/svg" width="16.5" height="19.5" viewBox="0 0 16.5 19.5"><path d="M9.009,17.9l.084-.745-.9-.1.066.9Zm5.982,0,.748.054.066-.9-.9.1Zm-.091.574.728.179Zm-.082.333-.728-.179ZM12.7,20.917l.174.729h0Zm-1.408,0-.174.729h0ZM9.182,18.811l-.728.179ZM9.1,18.477l.728-.179h0ZM6.028,8.633l.724.2ZM10.158,4.3l.231.713ZM5.438,10.811l-.724-.2,0,.017,0,.017ZM4.97,12.927l.732.162h0Zm1.317,4.53.15-.735Zm.368.075L6.8,16.8h0Zm10.69,0L17.2,16.8h0Zm.368-.075.15.735Zm1.317-4.53-.732.162h0Zm-.467-2.116.732-.162,0-.014,0-.014Zm-.583-2.223-.725.19Zm-4.012-4.28L14.2,3.6h0Zm5.506,10.6-.741.116Zm-14.946,0-.741-.116ZM12.75,3a.75.75,0,0,0-1.5,0Zm-1.5,1a.75.75,0,0,0,1.5,0ZM8.925,18.649a27.524,27.524,0,0,0,6.149,0l-.168-1.491a26.022,26.022,0,0,1-5.814,0Zm6.7.008a4.2,4.2,0,0,0,.11-.7l-1.5-.109a2.7,2.7,0,0,1-.071.449Zm-.082.333.082-.333L14.172,18.3l-.082.333Zm-2.668,2.657a3.617,3.617,0,0,0,2.668-2.657l-1.457-.358a2.117,2.117,0,0,1-1.561,1.556Zm-1.757,0a3.777,3.777,0,0,0,1.757,0l-.349-1.459a2.274,2.274,0,0,1-1.059,0ZM8.454,18.99a3.617,3.617,0,0,0,2.668,2.657l.349-1.459a2.117,2.117,0,0,1-1.56-1.556Zm-.082-.333.082.333,1.457-.358L9.828,18.3Zm-.11-.7a4.2,4.2,0,0,0,.11.7L9.828,18.3a2.7,2.7,0,0,1-.071-.449ZM6.752,8.829A5.553,5.553,0,0,1,10.39,5.016L9.927,3.589A7.053,7.053,0,0,0,5.3,8.436Zm-.59,2.179.59-2.179L5.3,8.436l-.59,2.179ZM5.7,13.089l.467-2.116-1.465-.323-.467,2.116ZM5.25,15.26a1.518,1.518,0,0,1,.018-.235l-1.482-.232a3.018,3.018,0,0,0-.036.467Zm1.187,1.462A1.489,1.489,0,0,1,5.25,15.26H3.75a2.989,2.989,0,0,0,2.388,2.932ZM6.8,16.8l-.368-.075-.3,1.47.368.075Zm10.39,0a26.021,26.021,0,0,1-10.39,0l-.3,1.47a27.523,27.523,0,0,0,10.989,0Zm.368-.075L17.2,16.8l.3,1.47.368-.075ZM18.75,15.26a1.489,1.489,0,0,1-1.187,1.462l.3,1.47A2.989,2.989,0,0,0,20.25,15.26Zm-.018-.235a1.52,1.52,0,0,1,.018.235h1.5a3.017,3.017,0,0,0-.036-.467Zm-.9-4.052.467,2.116,1.465-.323-.467-2.116Zm-.576-2.194L17.837,11l1.451-.381L18.7,8.4ZM13.732,5.021a5.4,5.4,0,0,1,3.522,3.758L18.7,8.4a6.9,6.9,0,0,0-4.5-4.8Zm-3.342,0a5.393,5.393,0,0,1,3.342,0L14.2,3.6a6.893,6.893,0,0,0-4.275-.007Zm9.824,9.778c-.107-.684-.324-1.449-.452-2.028l-1.465.323c.16.725.335,1.3.434,1.936ZM4.238,12.766c-.128.579-.344,1.343-.452,2.028l1.482.232c.1-.635.274-1.211.434-1.936ZM11.25,3V4h1.5V3Z" transform="translate(-3.75 -2.25)" fill="#130f26"/></svg>