<svg xmlns="http://www.w3.org/2000/svg" width="19.945" height="20.942" viewBox="0 0 19.945 20.942"><g transform="translate(0 0)"><path d="M8.992,17.2A7.644,7.644,0,0,0,16.463,9.4h1.52a9.2,9.2,0,0,1-8.991,9.394ZM0,9.4H1.52A7.644,7.644,0,0,0,8.992,17.2v1.588A9.2,9.2,0,0,1,0,9.4Zm16.463,0A7.644,7.644,0,0,0,8.992,1.588,7.644,7.644,0,0,0,1.52,9.4H0A9.2,9.2,0,0,1,8.992,0a9.2,9.2,0,0,1,8.991,9.4Z" transform="translate(0 0)" fill="#6b6b6b"/></g><g transform="translate(14.236 14.677)"><path d="M4.474,6.033,5.5,4.91a.85.85,0,0,1,0,1.123.679.679,0,0,1-1.023,0ZM.212,1.356a.851.851,0,0,1,0-1.124.68.68,0,0,1,1.024,0L5.5,4.91,4.474,6.033Z" transform="translate(0 0)" fill="#6b6b6b"/></g></svg>