<svg xmlns="http://www.w3.org/2000/svg" width="15.615" height="15.615" viewBox="0 0 15.615 15.615"><g transform="translate(4256 -2042)"><g transform="translate(-4256.004 2042)"><path d="M13.829,98.352H1.793A1.791,1.791,0,0,1,0,96.563V87.129A1.791,1.791,0,0,1,1.793,85.34H4.07a.488.488,0,0,1,0,.976H1.793a.814.814,0,0,0-.813.813v9.434a.814.814,0,0,0,.813.813H13.829a.814.814,0,0,0,.813-.813v-5.53a.488.488,0,1,1,.976,0v5.53A1.791,1.791,0,0,1,13.829,98.352Zm0,0" transform="translate(0 -82.737)" fill="#6b6b6b"/><path d="M128.491,10.4a.43.43,0,0,1-.107-.013.481.481,0,0,1-.38-.466V8.947A6.351,6.351,0,0,1,134.347,2.6h.163V.489a.488.488,0,0,1,.839-.338l4.229,4.392a.487.487,0,0,1,0,.677L135.349,9.61a.488.488,0,0,1-.839-.338V7.157h-.773a5.337,5.337,0,0,0-4.8,2.967A.5.5,0,0,1,128.491,10.4Zm5.856-6.823a5.376,5.376,0,0,0-5.327,4.7,6.308,6.308,0,0,1,4.716-2.095H135a.488.488,0,0,1,.488.488V8.062l3.064-3.181L135.485,1.7V3.091a.488.488,0,0,1-.488.488Zm0,0" transform="translate(-124.096 0)" fill="#6b6b6b"/></g></g></svg>