<svg xmlns="http://www.w3.org/2000/svg" width="21.852" height="21.852" viewBox="0 0 21.852 21.852"><g transform="translate(-2.25 -2.25)"><path d="M3.09,6.769a.84.84,0,0,0,0,1.681ZM23.261,8.45a.84.84,0,0,0,0-1.681ZM5.332,7.609v-.84h-.84v.84Zm15.688,0h.84v-.84h-.84Zm-.738,10.979.808.233ZM15.108,23.1l.14.829Zm-3.864,0,.14-.829h0Zm-.177-.03-.14.829h0Zm-5-4.481-.807.233Zm9.215,4.481-.14-.829ZM8.517,5.88l.763.353ZM9.61,4.414l-.561-.626h0Zm1.636-.98.292.788Zm3.86,0,.292-.788h0ZM17.835,5.88l.763-.353ZM3.09,8.45H23.261V6.769H3.09ZM15.144,22.24l-.177.03.28,1.657.177-.03Zm-3.76.03-.177-.03-.28,1.657.177.03Zm8.8-14.661v5.763H21.86V7.609ZM6.172,13.373V7.609H4.491v5.764Zm14.007,0a17.964,17.964,0,0,1-.7,4.983l1.615.466a19.648,19.648,0,0,0,.771-5.449Zm-5.212,8.9a10.752,10.752,0,0,1-3.584,0l-.28,1.657a12.437,12.437,0,0,0,4.144,0Zm-3.76-.03a5.465,5.465,0,0,1-4.33-3.885l-1.615.466A7.146,7.146,0,0,0,10.927,23.9Zm-4.33-3.885a17.967,17.967,0,0,1-.7-4.983H4.491a19.648,19.648,0,0,0,.77,5.449ZM15.424,23.9a7.146,7.146,0,0,0,5.665-5.076l-1.615-.466a5.465,5.465,0,0,1-4.33,3.885ZM8.974,7.609A3.275,3.275,0,0,1,9.28,6.233L7.754,5.527a4.955,4.955,0,0,0-.461,2.082ZM9.28,6.233a3.681,3.681,0,0,1,.891-1.193L9.049,3.788a5.361,5.361,0,0,0-1.3,1.739Zm.891-1.193a4.277,4.277,0,0,1,1.368-.818l-.585-1.576a5.958,5.958,0,0,0-1.9,1.142Zm1.368-.818a4.714,4.714,0,0,1,1.637-.291V2.25a6.4,6.4,0,0,0-2.222.4Zm1.637-.291a4.714,4.714,0,0,1,1.637.291L15.4,2.647a6.4,6.4,0,0,0-2.222-.4Zm1.637.291a4.278,4.278,0,0,1,1.368.818L17.3,3.788a5.958,5.958,0,0,0-1.9-1.142Zm1.368.818a3.683,3.683,0,0,1,.891,1.193L18.6,5.527a5.361,5.361,0,0,0-1.3-1.739Zm.891,1.193a3.274,3.274,0,0,1,.306,1.377h1.681A4.955,4.955,0,0,0,18.6,5.527ZM5.332,8.45H21.02V6.769H5.332Z" fill="#6b6b6b"/><path d="M10,12v4.482M14.482,12v4.482" transform="translate(0.935 1.176)" fill="none" stroke="#6b6b6b" stroke-linecap="round" stroke-width="1.5"/></g></svg>