<svg xmlns="http://www.w3.org/2000/svg" width="17.625" height="17.625" viewBox="0 0 17.625 17.625"><g transform="translate(0.75 0.75)"><path d="M20.583,11.792H17m1.792,1.792V10" transform="translate(-4.458 -3.729)" fill="none" stroke="#fff" stroke-linecap="round" stroke-width="1.5"/><path d="M3,18.579a4.358,4.358,0,0,1,3.587-4.344l.186-.031a15.349,15.349,0,0,1,5,0l.186.031a4.358,4.358,0,0,1,3.587,4.344A1.665,1.665,0,0,1,13.9,20.271H4.638A1.665,1.665,0,0,1,3,18.579Z" transform="translate(-3 -4.146)" fill="none" stroke="#fff" stroke-width="1.5"/><path d="M13.233,6.527a3.594,3.594,0,0,1-3.658,3.527A3.594,3.594,0,0,1,5.917,6.527,3.594,3.594,0,0,1,9.575,3,3.594,3.594,0,0,1,13.233,6.527Z" transform="translate(-3.304 -3)" fill="none" stroke="#fff" stroke-width="1.5"/></g></svg>